<?xml version="1.0" encoding="UTF-8" standalone="no"?>
<!-- Created with Inkscape (http://www.inkscape.org/) -->

<svg
   xmlns:dc="http://purl.org/dc/elements/1.1/"
   xmlns:cc="http://creativecommons.org/ns#"
   xmlns:rdf="http://www.w3.org/1999/02/22-rdf-syntax-ns#"
   xmlns:svg="http://www.w3.org/2000/svg"
   xmlns="http://www.w3.org/2000/svg"
   xmlns:sodipodi="http://sodipodi.sourceforge.net/DTD/sodipodi-0.dtd"
   xmlns:inkscape="http://www.inkscape.org/namespaces/inkscape"
   width="420mm"
   height="297mm"
   viewBox="0 0 420 297"
   version="1.1"
   id="svg8"
   inkscape:version="0.92.0 r15299"
   sodipodi:docname="Gyula Rimanoczy 2.svg">
  <defs
     id="defs2">
    <clipPath
       clipPathUnits="userSpaceOnUse"
       id="clipPath3562">
      <path
         inkscape:connector-curvature="0"
         id="path3564"
         d="m 237.5562154225922,-350.5929924466879 420.000002447765,0 0,297.00000173091871 -420.000002447765,0 z"
         style="color:#000000;clip-rule:nonzero;display:inline;overflow:visible;visibility:visible;opacity:1;isolation:auto;mix-blend-mode:normal;color-interpolation:sRGB;color-interpolation-filters:linearRGB;solid-color:#000000;solid-opacity:1;fill:#000000;fill-opacity:1;fill-rule:nonzero;stroke:none;stroke-width:1;stroke-linecap:butt;stroke-linejoin:round;stroke-miterlimit:10;stroke-dasharray:none;stroke-dashoffset:0;stroke-opacity:1;marker:none;color-rendering:auto;image-rendering:auto;shape-rendering:auto;text-rendering:auto;enable-background:accumulate" />
    </clipPath>
    <clipPath
       clipPathUnits="userSpaceOnUse"
       id="clipPath3668">
      <path
         inkscape:connector-curvature="0"
         id="path3670"
         d="m -379.5563700906095,-2315.686631613614 420.00000244776424,0 0,297.000001730919 -420.00000244776424,0 z"
         style="color:#000000;clip-rule:nonzero;display:inline;overflow:visible;visibility:visible;opacity:1;isolation:auto;mix-blend-mode:normal;color-interpolation:sRGB;color-interpolation-filters:linearRGB;solid-color:#000000;solid-opacity:1;fill:#000000;fill-opacity:1;fill-rule:nonzero;stroke:none;stroke-width:1;stroke-linecap:butt;stroke-linejoin:round;stroke-miterlimit:10;stroke-dasharray:none;stroke-dashoffset:0;stroke-opacity:1;marker:none;color-rendering:auto;image-rendering:auto;shape-rendering:auto;text-rendering:auto;enable-background:accumulate" />
    </clipPath>
    <clipPath
       clipPathUnits="userSpaceOnUse"
       id="clipPath3672">
      <path
         style="color:#000000;clip-rule:nonzero;display:inline;overflow:visible;visibility:visible;opacity:1;isolation:auto;mix-blend-mode:normal;color-interpolation:sRGB;color-interpolation-filters:linearRGB;solid-color:#000000;solid-opacity:1;fill:#000000;fill-opacity:1;fill-rule:nonzero;stroke:none;stroke-width:1;stroke-linecap:butt;stroke-linejoin:round;stroke-miterlimit:10;stroke-dasharray:none;stroke-dashoffset:0;stroke-opacity:1;marker:none;color-rendering:auto;image-rendering:auto;shape-rendering:auto;text-rendering:auto;enable-background:accumulate"
         d="m -379.5563700906095,-1895.342038389368 420.00000244776424,0 0,297.000001730919 -420.00000244776424,0 z"
         id="path3674"
         inkscape:connector-curvature="0" />
    </clipPath>
    <clipPath
       clipPathUnits="userSpaceOnUse"
       id="clipPath3676">
      <path
         inkscape:connector-curvature="0"
         id="path3678"
         d="m -379.5563700906095,-1507.262701787881 420.00000244776424,0 0,297.000001730919 -420.00000244776424,0 z"
         style="color:#000000;clip-rule:nonzero;display:inline;overflow:visible;visibility:visible;opacity:1;isolation:auto;mix-blend-mode:normal;color-interpolation:sRGB;color-interpolation-filters:linearRGB;solid-color:#000000;solid-opacity:1;fill:#000000;fill-opacity:1;fill-rule:nonzero;stroke:none;stroke-width:1;stroke-linecap:butt;stroke-linejoin:round;stroke-miterlimit:10;stroke-dasharray:none;stroke-dashoffset:0;stroke-opacity:1;marker:none;color-rendering:auto;image-rendering:auto;shape-rendering:auto;text-rendering:auto;enable-background:accumulate" />
    </clipPath>
    <clipPath
       clipPathUnits="userSpaceOnUse"
       id="clipPath3680">
      <path
         style="color:#000000;clip-rule:nonzero;display:inline;overflow:visible;visibility:visible;opacity:1;isolation:auto;mix-blend-mode:normal;color-interpolation:sRGB;color-interpolation-filters:linearRGB;solid-color:#000000;solid-opacity:1;fill:#000000;fill-opacity:1;fill-rule:nonzero;stroke:none;stroke-width:1;stroke-linecap:butt;stroke-linejoin:round;stroke-miterlimit:10;stroke-dasharray:none;stroke-dashoffset:0;stroke-opacity:1;marker:none;color-rendering:auto;image-rendering:auto;shape-rendering:auto;text-rendering:auto;enable-background:accumulate"
         d="m -379.5563700906095,-1128.109134732988 420.00000244776424,0 0,297.0000017309187 -420.00000244776424,0 z"
         id="path3682"
         inkscape:connector-curvature="0" />
    </clipPath>
    <clipPath
       clipPathUnits="userSpaceOnUse"
       id="clipPath3684">
      <path
         style="color:#000000;clip-rule:nonzero;display:inline;overflow:visible;visibility:visible;opacity:1;isolation:auto;mix-blend-mode:normal;color-interpolation:sRGB;color-interpolation-filters:linearRGB;solid-color:#000000;solid-opacity:1;fill:#000000;fill-opacity:1;fill-rule:nonzero;stroke:none;stroke-width:1;stroke-linecap:butt;stroke-linejoin:round;stroke-miterlimit:10;stroke-dasharray:none;stroke-dashoffset:0;stroke-opacity:1;marker:none;color-rendering:auto;image-rendering:auto;shape-rendering:auto;text-rendering:auto;enable-background:accumulate"
         d="m -379.5563700906095,-720.9993529876968 420.00000244776424,0 0,297.0000017309184 -420.00000244776424,0 z"
         id="path3686"
         inkscape:connector-curvature="0" />
    </clipPath>
    <clipPath
       clipPathUnits="userSpaceOnUse"
       id="clipPath3688">
      <path
         inkscape:connector-curvature="0"
         id="path3690"
         d="m -379.5563700906095,-318.5751270702144 420.00000244776424,0 0,297.00000173091876 -420.00000244776424,0 z"
         style="color:#000000;clip-rule:nonzero;display:inline;overflow:visible;visibility:visible;opacity:1;isolation:auto;mix-blend-mode:normal;color-interpolation:sRGB;color-interpolation-filters:linearRGB;solid-color:#000000;solid-opacity:1;fill:#000000;fill-opacity:1;fill-rule:nonzero;stroke:none;stroke-width:1;stroke-linecap:butt;stroke-linejoin:round;stroke-miterlimit:10;stroke-dasharray:none;stroke-dashoffset:0;stroke-opacity:1;marker:none;color-rendering:auto;image-rendering:auto;shape-rendering:auto;text-rendering:auto;enable-background:accumulate" />
    </clipPath>
  </defs>
  <sodipodi:namedview
     id="base"
     pagecolor="#1260ff"
     bordercolor="#ffffff"
     borderopacity="1"
     inkscape:pageopacity="0.8235294118"
     inkscape:pageshadow="2"
     inkscape:zoom="0.4872965768799102"
     inkscape:cx="793.700787401575"
     inkscape:cy="561.259842519685"
     inkscape:document-units="mm"
     inkscape:current-layer="layer1"
     showgrid="false"
     guidecolor="#25861d"
     guideopacity="1"
     guidehicolor="#ff9300"
     guidehiopacity="1"
     inkscape:pagecheckerboard="true"
     borderlayer="true"
     inkscape:showpageshadow="false"
     inkscape:window-width="1366"
     inkscape:window-height="705"
     inkscape:window-x="-8"
     inkscape:window-y="-8"
     inkscape:window-maximized="1"
     inkscape:object-nodes="true"
     inkscape:snap-smooth-nodes="true"
     showguides="false"
     inkscape:guide-bbox="true"
     inkscape:snap-global="true"
     inkscape:snap-intersection-paths="false">
    <sodipodi:guide
       position="290.2603337051589,661.9661127107861"
       orientation="1,0"
       id="guide5207"
       inkscape:locked="false" />
    <sodipodi:guide
       position="229.55636028612,655.593112730533"
       orientation="0,1"
       id="guide5209"
       inkscape:locked="false" />
    <sodipodi:guide
       position="631.0220735990201,594.5800772308148"
       orientation="0,1"
       id="guide5211"
       inkscape:locked="false" />
    <sodipodi:guide
       position="290.2603337051589,465.5904602196706"
       orientation="0.1613029044269116,0.9869049462959655"
       id="guide5213"
       inkscape:locked="false" />
    <sodipodi:guide
       position="607.2868217919489,375.3286743460637"
       orientation="-0.861807591507827,0.5072353252874628"
       id="guide5215"
       inkscape:locked="false" />
    <sodipodi:guide
       position="665.5562451760071,342.5929939917627"
       orientation="0,1"
       id="guide5217"
       inkscape:locked="false" />
    <sodipodi:guide
       position="736.3319314934413,594.5800772308148"
       orientation="0.2777870836026408,-0.9606426683130098"
       id="guide5228"
       inkscape:locked="false" />
    <sodipodi:guide
       position="501.2123389540885,431.1117885703562"
       orientation="1,0"
       id="guide5459"
       inkscape:locked="false" />
    <sodipodi:guide
       position="-541.3830035840579,1259.510650766163"
       orientation="-0.09810036546051126,0.9951765261985002"
       id="guide7346"
       inkscape:locked="false" />
    <sodipodi:guide
       position="-310.8722900747222,1341.451540497387"
       orientation="-0.3349426234688884,0.9422385255251339"
       id="guide7348"
       inkscape:locked="false" />
    <sodipodi:guide
       position="-541.3830805291509,1259.510650766186"
       orientation="0,1"
       id="guide7350"
       inkscape:locked="false" />
    <sodipodi:guide
       position="126.1646179385071,1259.51068305139"
       orientation="-0.02888838158610021,-0.9995826436114904"
       id="guide7356"
       inkscape:locked="false" />
    <sodipodi:guide
       position="-237.5040396451161,1309.09033152132"
       orientation="1,0"
       id="guide7360"
       inkscape:locked="false" />
    <sodipodi:guide
       position="-222.2664493324619,1303.158923547129"
       orientation="1,0"
       id="guide7364"
       inkscape:locked="false" />
    <sodipodi:guide
       position="-105.7415721837395,1291.126945928793"
       orientation="1,0"
       id="guide7372"
       inkscape:locked="false" />
    <sodipodi:guide
       position="-99.45838492630197,1287.795387628283"
       orientation="1,0"
       id="guide7376"
       inkscape:locked="false" />
    <sodipodi:guide
       position="-93.50400610938911,1287.048942597445"
       orientation="1,0"
       id="guide7380"
       inkscape:locked="false" />
  </sodipodi:namedview>
  <metadata
     id="metadata5">
    <rdf:RDF>
      <cc:Work
         rdf:about="">
        <dc:format>image/svg+xml</dc:format>
        <dc:type
           rdf:resource="http://purl.org/dc/dcmitype/StillImage" />
        <dc:title></dc:title>
        <dc:date>2016</dc:date>
        <dc:creator>
          <cc:Agent>
            <dc:title>Lazur URH - Tamás Pétery </dc:title>
          </cc:Agent>
        </dc:creator>
        <dc:description>Made this for a subject in Architecture I MSc at the UNIVERSITY OF PÉCS 
Faculty of Engineering and Information Technology (PTE MIK) in the autumn semester of 2016-2017 as part of my architect studies (MSc). 
Image shows the schematics of the iconic building of Gyula Rimanóczy: 
Post headquarters and  Elizabeth automatic pay station centre Budapest, Hungary (1939).</dc:description>
      </cc:Work>
    </rdf:RDF>
  </metadata>
  <g
     inkscape:label="Layer 1"
     inkscape:groupmode="layer"
     id="layer1">
    <g
       id="g3579"
       clip-path="url(#clipPath3684)"
       transform="translate(379.55637009061,720.9993529876974)">
      <path
         style="color:#000000;clip-rule:nonzero;display:inline;overflow:visible;visibility:visible;opacity:1;isolation:auto;mix-blend-mode:normal;color-interpolation:sRGB;color-interpolation-filters:linearRGB;solid-color:#000000;solid-opacity:1;fill:#ffffff;fill-opacity:1;fill-rule:nonzero;stroke:none;stroke-width:3.543307066;stroke-linecap:round;stroke-linejoin:round;stroke-miterlimit:4.0476899147;stroke-dasharray:none;stroke-dashoffset:0;stroke-opacity:1;marker:none;color-rendering:auto;image-rendering:auto;shape-rendering:auto;text-rendering:auto;enable-background:accumulate"
         d="m -394.5563835890756,-732.4993721282079 450.00002944469633,0 0,320.0000400119403 -450.00002944469503,0 z"
         id="path3521"
         inkscape:connector-curvature="0" />
      <path
         inkscape:export-ydpi="58.25687408447266"
         inkscape:export-xdpi="58.25687408447266"
         style="color:#000000;clip-rule:nonzero;display:inline;overflow:visible;visibility:visible;opacity:1;isolation:auto;mix-blend-mode:normal;color-interpolation:sRGB;color-interpolation-filters:linearRGB;solid-color:#000000;solid-opacity:1;fill:#c8c8c8;fill-opacity:1;fill-rule:nonzero;stroke:none;stroke-width:3.543307066;stroke-linecap:round;stroke-linejoin:round;stroke-miterlimit:4.0476899147;stroke-dasharray:none;stroke-dashoffset:0;stroke-opacity:1;marker:none;color-rendering:auto;image-rendering:auto;shape-rendering:auto;text-rendering:auto;enable-background:accumulate"
         d="m -387.5563961248622,-728.9993903468357 436.00005451626674,0 0,313.0000764491958 -436.00005451626685,0 z"
         id="path3523"
         inkscape:connector-curvature="0" />
      <g
         transform="matrix(0.1986519653468158,0,0,0.1986519653468157,3.366285025683346,-255.7348798611084)"
         id="g10391">
        <path
           sodipodi:nodetypes="ccccccccccccccccccccccccccccccccccccccccccccccccccccccccccccccccccccccccccccccccccccccccc"
           inkscape:connector-curvature="0"
           id="path5463"
           d="m -773.9082860353612,-2014.055403946157 104.3126952772468,-67.678164493247 -6.98e-11,50.640911767741 -104.3126952772211,64.144154237669 z m -107.700928869285,69.876453299553 88.2659530820127,-57.267024650841 -3.93e-11,46.448463883201 -88.2659530819949,54.276662043673 z m -92.215651957246,59.829592605454 75.6571004032171,-49.086390420284 -1.8e-11,42.89711403614 -75.6571004032034,46.523203187692 z m -79.8463682751027,51.804390941564 65.5696100611092,-42.541618195938 -1.7e-12,39.850244450117 -65.5696100610995,40.320185092384 z m -69.809032166901,45.29215882639 57.373080505003,-37.223702921123 1e-11,37.20749368629 -57.373080504995,35.27996007794 z m -61.552741299681,39.935470362626 50.623115052575,-32.844319654312 2e-11,34.893465988093 -50.623115052569,31.129258919958 z m -54.679374580045,35.476024249786 44.998075910845,-29.194789524704 2.7e-11,32.85041249415 -44.99807591084,27.670299515821 z m -48.896412267754,31.724033434198 40.261347963186,-26.121596445478 3.2e-11,31.033375104254 -40.261347963183,24.757582063273 z m -43.984569753054,28.537225876486 36.234963236129,-23.509274645657 3.6e-11,29.406811769262 -36.234963236126,22.281670169076 z m -39.777587761092,25.807732419191 32.783776886523,-21.270142037256 3.9e-11,27.942263943739 -32.783776886521,20.159460317977 z m -36.146696001613,23.45200678961 29.803207875947,-19.336346354524 4.1e-11,26.616671162747 -29.803207875944,18.326643345678 z m -32.991133401672,21.404675118811 27.211422345426,-17.654793720881 4.4e-11,25.411157297966 -27.211422345425,16.732897825262 z m -30.231607055535,19.614292102813 24.943616005007,-16.183439058461 4.5e-11,24.310109530619 -24.943616005006,15.338374183681 z m -27.804315472401,18.039463280686 22.947960222261,-14.888655906923 4.6e-11,23.300516175263 -22.94796022226,14.111201863059 z m -105.489868267373,73.586844523732 0,8.932474549282 25.408947759866,5.16810818774 -25.408947759866,16.216189128451 0,350.132687925125 70.179157275155,3.370919817884 34.341351910779,-0.546772624385 918.4001324068317,35.322552946644 50.1852856179554,1.930174380859 127.04319027947,-12.428020564264 22.6716932664066,0.649402989033 141.5327393473363,-14.670133013484 -1.156577530238,-457.301275614934 -72.3440813573693,-89.511737513907 -1.6106933e-5,-134.648744393684 -267.9322335157307,-407.609468445136 -991.0239259523327,659.374994696471 -2.46e-10,13.856839018798 z"
           style="color:#000000;clip-rule:nonzero;display:inline;overflow:visible;visibility:visible;opacity:1;isolation:auto;mix-blend-mode:normal;color-interpolation:sRGB;color-interpolation-filters:linearRGB;solid-color:#000000;solid-opacity:1;fill:#ffffff;fill-opacity:1;fill-rule:nonzero;stroke:none;stroke-width:3.0712931156;stroke-linecap:round;stroke-linejoin:round;stroke-miterlimit:4;stroke-dasharray:none;stroke-dashoffset:0;stroke-opacity:1;marker:none;color-rendering:auto;image-rendering:auto;shape-rendering:auto;text-rendering:auto;enable-background:accumulate" />
        <path
           inkscape:connector-curvature="0"
           style="color:#000000;clip-rule:nonzero;display:inline;overflow:visible;visibility:visible;opacity:1;isolation:auto;mix-blend-mode:normal;color-interpolation:sRGB;color-interpolation-filters:linearRGB;solid-color:#000000;solid-opacity:1;fill:#000000;fill-opacity:1;fill-rule:nonzero;stroke:none;stroke-width:4.8956623077;stroke-linecap:round;stroke-linejoin:round;stroke-miterlimit:4;stroke-dasharray:none;stroke-dashoffset:0;stroke-opacity:1;marker:none;color-rendering:auto;image-rendering:auto;shape-rendering:auto;text-rendering:auto;enable-background:accumulate"
           d="m -2200.115234375,-8194.162109375 -3745.603515625,2500.130859375 0,4.732421875 3745.603515625,-2492.126953125 1012.65625,1540.572265625 0,-7.8046875 z m -330.640625,326.193359375 -394.251953125,255.791015625 0,178.041015625 c 131.416811157188,-80.812021672431 262.834554939064,-161.622526712249 394.251953125,-242.43359375 l 0,-12.03125 -358.234375,221.048828125 0,-107.859375 358.234375,-228.3515625 z m -467.70703125,303.44921875 -333.603515625,216.44140625 0,164.25 333.603515625,-205.138671875 0,-11.03515625 -296.296875,182.828125 0.001953125,-99.587890625 296.294921875,-188.869140625 z m 459.08984375,95.7578125 -147.19921875,85.232421875 0,194.982421875 147.19921875,-80.0078125 z m -243.224609375,140.83203125 -134.931640625,78.12890625 0,186.78515625 134.931640625,-73.33984375 z m -612.052734375,20.455078125 -285.947265625,185.5234375 0,152.44140625 285.947265625,-175.833984375 0,-10.19140625 -248.07421875,153.072265625 0,-92.4921875 248.07421875,-158.130859375 z m 388.9375,108.732421875 -124.134765625,71.87890625 0,179.25 124.134765625,-67.47265625 z m 1188.763671875,40.83203125 0,1689.55078125 -150.275390625,-85.212890625 -3113.458984375,676.95703125 0,6.599609375 3113.458984375,-670.326171875 522.63671875,293.45703125 0,-10.330078125 -252.64453125,-143.259765625 0,-944.685546875 252.64453125,-83.494140625 530.556640625,635.021484375 0,-9.458984375 -530.556640625,-638.79296875 -90.576171875,30.111328125 0,-41.279296875 -45.201171875,-52.154296875 0,108.4609375 -32.03515625,10.650390625 0,-156.07421875 -48.896484375,-56.41796875 0,168.521484375 42.861328125,45.9765625 -78.796875,26.1953125 0,-641.517578125 z m -1917.607421875,70.96875 -247.822265625,160.787109375 0,142.216796875 247.822265625,-152.390625 0,-9.46875 -209.861328125,129.494140625 0,-86.341796875 209.861328125,-133.7734375 z m 523.44140625,7.1328125 -114.5859375,66.34765625 0,172.298828125 114.5859375,-62.28125 z m 671.7421875,30.712890625 -147.19921875,74.28125 0,194.984375 147.19921875,-69.056640625 z m -861.4609375,79.138671875 -106.09765625,61.431640625 0,165.8671875 106.09765625,-57.666015625 z m 1739.537109375,18.12109375 0,168.521484375 48.896484375,60.767578125 0,-164.5546875 z m -1121.30078125,25.478515625 -134.931640625,68.08984375 0,186.78515625 134.931640625,-63.30078125 z m -1246.783203125,30.697265625 -216.84375,140.689453125 0,133.27734375 216.84375,-133.341796875 0,-8.83984375 -179.11328125,110.51953125 0,-80.95703125 179.11328125,-114.173828125 z m 452.78125,27.474609375 -98.515625,57.04296875 0,159.8984375 98.515625,-53.546875 z m 1996.234375,23.498046875 0,161.953125 45.201171875,56.17578125 0,-158.287109375 z m -1425.34765625,30.91796875 -124.134765625,62.642578125 0,179.25 124.134765625,-58.236328125 z m -734.181640625,40.134765625 -91.72265625,53.109375 0,154.34375 91.72265625,-49.853515625 z m 2234.388671875,28.056640625 0,155.87890625 41.91015625,52.083984375 0,-152.478515625 z m -2782.02734375,17.408203125 -191.33203125,124.13671875 0,125.39453125 191.33203125,-117.654296875 0,-8.2890625 -154.04296875,95.05078125 0,-76.20703125 154.04296875,-98.19140625 z m 1076.41796875,18.052734375 -114.5859375,57.822265625 0,172.298828125 114.5859375,-53.755859375 z m -680.88671875,24.556640625 -85.60546875,49.568359375 0,149.16015625 85.60546875,-46.529296875 z m 2455.943359375,31.923828125 0,150.244140625 38.96484375,48.423828125 0,-147.08203125 z m -1103.314453125,24.208984375 -147.19921875,63.330078125 0,194.982421875 147.19921875,-58.10546875 z m -861.4609375,15.046875 -106.09765625,53.5390625 0,165.8671875 106.09765625,-49.7734375 z m -633.201171875,11.060546875 -80.080078125,46.369140625 0,144.31640625 80.080078125,-43.52734375 z m -481.419921875,23.02734375 -170.072265625,110.341796875 0,118.392578125 170.072265625,-104.580078125 0,-7.8046875 -133.36328125,82.291015625 0,-71.982421875 133.36328125,-85.009765625 z m 3143.99609375,12.18359375 0,145 36.318359375,45.13671875 0,-142.052734375 z m -2795.5,41.755859375 -75.076171875,43.46875 0,139.77734375 75.076171875,-40.806640625 z m 590.359375,0.66796875 -98.515625,49.712890625 0,159.8984375 98.515625,-46.216796875 z m 794.001953125,0.8984375 -134.931640625,58.052734375 0,186.78515625 134.931640625,-53.26171875 z m 1471.3828125,36.435546875 0,140.111328125 33.93359375,42.173828125 0,-137.357421875 z m -2980.412109375,34.181640625 -70.5234375,40.8359375 0,135.51171875 70.5234375,-38.33203125 z m -426.537109375,5.392578125 -152.16796875,98.728515625 0,112.130859375 152.16796875,-93.572265625 0,-7.37109375 -116.126953125,71.654296875 0,-68.19921875 116.126953125,-74.025390625 z m 978.26953125,5.494140625 -91.72265625,46.28515625 0,154.341796875 91.72265625,-43.029296875 z m 734.181640625,14.486328125 -124.134765625,53.40625 0,179.251953125 124.134765625,-49.001953125 z m 1750.810546875,15.001953125 0,135.541015625 31.77734375,39.4921875 0,-132.962890625 z m -3153.87890625,27.4609375 -66.375,38.431640625 0,131.501953125 66.375,-36.076171875 z m 516.779296875,19.80859375 -85.60546875,43.197265625 0,149.162109375 85.60546875,-40.16015625 z m 680.88671875,26.099609375 -114.5859375,49.296875 0,172.298828125 114.5859375,-45.23046875 z m -1688.5078125,9.37890625 -136.951171875,88.85546875 0,106.498046875 136.951171875,-84.212890625 0,-6.986328125 -101.634765625,62.712890625 0.00390625,-64.798828125 101.630859375,-64.78515625 z m 380.541015625,8.580078125 -62.58203125,36.236328125 0,127.720703125 62.58203125,-34.015625 z m 485.046875,27.61328125 -80.080078125,40.412109375 0,144.31640625 80.080078125,-37.5703125 z m -589.08203125,32.623046875 -59.103515625,34.224609375 0,124.15234375 59.103515625,-32.125 z m 1222.283203125,3.42578125 -106.09765625,45.646484375 0,165.865234375 106.09765625,-41.87890625 z m 1988.658203125,5.951171875 0,172.826171875 44.46875,45.68359375 0,-168.619140625 z m -2754.783203125,25.078125 -75.076171875,37.884765625 0,139.775390625 75.076171875,-35.220703125 z m -896.046875,2.732421875 -123.908203125,80.392578125 0,101.404296875 123.908203125,-76.193359375 0,-6.63671875 -89.33984375,55.125 0,-61.716796875 89.33984375,-56.947265625 z m 2523.6328125,15.28125 -147.19921875,52.37890625 0,194.982421875 147.19921875,-47.15234375 z m -2182.02734375,4.44140625 -55.91015625,32.373046875 0,120.77734375 55.91015625,-30.388671875 z m 1144.80078125,22.134765625 -98.515625,42.384765625 0,159.896484375 98.515625,-38.88671875 z m 2237.986328125,12.865234375 0,165.8671875 41.001953125,42.123046875 0,-161.990234375 z m -2953.013671875,5.453125 -70.5234375,35.58984375 0,135.51171875 70.5234375,-33.083984375 z m -522.7734375,13.39453125 -52.966796875,30.669921875 0,117.580078125 52.966796875,-28.787109375 z m -396.48828125,22.376953125 -112.642578125,73.08203125 0,96.775390625 112.642578125,-69.265625 0,-6.322265625 -78.837890625,48.64453125 0,-58.9140625 78.837890625,-50.25390625 z m 2428.291015625,5.880859375 -134.931640625,48.013671875 0,186.78515625 134.931640625,-43.224609375 z m -957.296875,10.283203125 -91.72265625,39.4609375 0,154.341796875 91.72265625,-36.205078125 z m -668.88671875,7.18359375 -66.375,33.49609375 0,131.501953125 66.375,-31.138671875 z m -493.748046875,5.3046875 -50.25,29.095703125 0,114.55078125 50.25,-27.3125 z m 3631.787109375,6.267578125 0,159.44921875 37.921875,38.9609375 0,-155.86328125 z m -3715.419921875,42.15625 -47.736328125,27.640625 0,111.671875 47.736328125,-25.947265625 z m 467.080078125,1.93359375 -62.58203125,31.580078125 0,127.72265625 62.58203125,-29.359375 z m 627.080078125,2.595703125 -85.60546875,36.828125 0,149.162109375 85.60546875,-33.791015625 z m 886.2890625,3.666015625 -124.134765625,44.171875 0,179.25 124.134765625,-39.765625 z m -2339.662109375,1.982421875 -102.84765625,66.728515625 0,92.55078125 102.84765625,-63.2421875 0,-6.037109375 -69.806640625,43.072265625 0,-56.357421875 69.8046875,-44.49609375 z m 4137.4453125,18.138671875 0,153.5078125 35.1796875,36.142578125 0,-150.181640625 z m -3857.703125,17.69921875 -45.40625,26.29296875 0,108.931640625 45.40625,-24.6796875 z m 442.515625,8.416015625 -59.103515625,29.826171875 0,124.15234375 59.103515625,-27.728515625 z m 589.08203125,11.203125 -80.080078125,34.453125 0,144.31640625 80.080078125,-31.611328125 z m 822.919921875,15.6484375 -114.5859375,40.7734375 0,172.298828125 114.5859375,-36.705078125 z m -1930.12890625,8.513671875 -43.244140625,25.0390625 0,106.326171875 43.244140625,-23.50390625 z m -326.96484375,0.076171875 -94.2734375,61.1640625 0,88.6796875 94.2734375,-57.96875 0,-5.775390625 -61.9921875,38.25 0,-54.01171875 61.9921875,-39.517578125 z m 4318.580078125,3.8515625 0,147.99609375 32.72265625,33.6171875 0,-144.900390625 z m -3571.771484375,10.302734375 -55.91015625,28.212890625 0,120.779296875 55.91015625,-26.228515625 z m 554.44140625,18.794921875 -75.076171875,32.298828125 0,139.77734375 75.076171875,-29.63671875 z m -1046.3125,8.6796875 -41.232421875,23.875 0,103.841796875 41.232421875,-22.412109375 z m 1812.4375,17.2890625 -106.09765625,37.751953125 0,165.8671875 106.09765625,-33.986328125 z m -1413.56640625,2.166015625 -52.966796875,26.728515625 0,117.58203125 52.966796875,-24.84765625 z m 3719.029296875,3.640625 0,142.865234375 30.515625,31.349609375 0,-139.978515625 z m -316.8046875,6.837890625 0,172.82421875 44.46875,36.869140625 0,-168.619140625 z m -4168.662109375,1.51171875 -86.732421875,56.271484375 0,85.119140625 86.732421875,-53.333984375 0,-5.533203125 -55.205078125,34.0625 0.009765625,-51.861328125 55.1953125,-35.18359375 z m 298.875,8.330078125 -39.359375,22.7890625 0,101.46875 39.359375,-21.392578125 z m 990.3359375,5.1796875 -70.5234375,30.341796875 0,135.51171875 70.5234375,-27.837890625 z m -610.90234375,18.97265625 -50.25,25.357421875 0,114.55078125 50.25,-23.57421875 z m -445.017578125,13.8203125 -37.609375,21.77734375 0,99.203125 37.609375,-20.44140625 z m 1770.947265625,2.083984375 -98.515625,35.0546875 0,159.896484375 98.515625,-31.55859375 z m 2531.8515625,0.05859375 0,138.076171875 28.5234375,29.3046875 0,-135.37890625 z m -3364.033203125,15.466796875 -66.375,28.556640625 0,131.501953125 66.375,-26.201171875 z m 3070.16796875,2.525390625 0,165.8671875 41.001953125,33.994140625 0,-161.990234375 z m -3647.548828125,8.248046875 -47.736328125,24.087890625 0,111.671875 47.736328125,-22.39453125 z m -424.06640625,7.912109375 -35.974609375,20.828125 0,97.0390625 35.974609375,-19.552734375 z m 2870.85546875,16.380859375 -147.19921875,41.427734375 0,194.982421875 147.19921875,-36.203125 z m 1541.962890625,2.578125 0,133.599609375 26.720703125,27.451171875 0,-131.072265625 z m -2742.484375,4.935546875 -91.72265625,32.63671875 0,154.341796875 91.72265625,-29.380859375 z m -779.1875,4.875 -62.58203125,26.923828125 0,127.72265625 62.58203125,-24.703125 z m -546.55078125,3.419921875 -45.40625,22.9140625 0,108.93359375 45.40625,-21.302734375 z m -404.5625,2.53125 -34.443359375,19.943359375 0,94.96484375 34.443359375,-18.720703125 z m 4199.453125,11.80859375 0,159.44921875 37.921875,31.443359375 0,-155.86328125 z m -4256.87890625,21.443359375 -33.0078125,19.111328125 0,92.9765625 33.0078125,-17.94140625 z m 4574.576171875,0.759765625 0,129.404296875 25.083984375,25.771484375 0,-127.033203125 z m -4188.19921875,1.61328125 -43.244140625,21.822265625 0,106.326171875 43.244140625,-20.287109375 z m 518.126953125,3.181640625 -59.103515625,25.427734375 0,124.154296875 59.103515625,-23.33203125 z m -1177.912109375,3.125 -265.244140625,170.296875 0.001953125,4.84765625 265.2421875,-169.66015625 129.794921875,31.74609375 0,-5.341796875 z m 1909.02734375,1.365234375 -85.60546875,30.4609375 0,149.162109375 85.60546875,-27.423828125 z m 1109.404296875,6.814453125 -134.931640625,37.974609375 0,186.78515625 134.931640625,-33.185546875 z m -2800.06640625,15.01171875 -31.66015625,18.33203125 0,91.0703125 31.66015625,-17.208984375 z m 4374.734375,4.70703125 0,153.5078125 35.1796875,29.16796875 0,-150.181640625 z m -4005.341796875,2.140625 -41.232421875,20.80859375 0,103.83984375 41.232421875,-19.34375 z m 491.87109375,9.12109375 -55.91015625,24.052734375 0,120.779296875 55.91015625,-22.0703125 z m -1079.67578125,4.32421875 -265.1953125,165.421875 96.033203125,19.533203125 -96.033203125,56.44140625 0,4.84765625 265.2421875,-155.283203125 129.794921875,29.080078125 0,-5.341796875 -104.107421875,-23.416015625 104.107421875,-60.29296875 z m 1767.041015625,8.419921875 -80.080078125,28.49609375 0,144.31640625 80.080078125,-25.654296875 z m -1601.43359375,1.861328125 -30.392578125,17.599609375 0,89.240234375 30.392578125,-16.51953125 z m 353.505859375,10.9375 -39.359375,19.861328125 0,101.470703125 39.359375,-18.46484375 z m 2276.25,6.267578125 -124.134765625,34.935546875 0,179.25 124.134765625,-30.529296875 z m -1808.6875,8.19921875 -52.966796875,22.7890625 0,117.580078125 52.966796875,-20.90625 z m 3664.771484375,2.580078125 0,147.994140625 32.72265625,27.1328125 0,-144.90234375 z m -4197.91796875,16.048828125 -37.609375,18.978515625 0,99.203125 37.609375,-17.642578125 z m 1180.587890625,1.404296875 -75.076171875,26.71484375 0,139.775390625 75.076171875,-24.048828125 z m -735.5703125,17.8828125 -50.25,21.619140625 0,114.55078125 50.25,-19.8359375 z m 1691.4140625,11.69140625 -114.5859375,32.248046875 0,172.298828125 114.5859375,-28.1796875 z m -2199.11328125,0.65234375 -35.974609375,18.15234375 0,97.037109375 35.974609375,-16.875 z m 4314.857421875,2.4375 0,142.86328125 30.515625,25.30078125 0,-139.9765625 z m -3196.255859375,11.6953125 -70.5234375,25.095703125 0,135.51171875 70.5234375,-22.591796875 z m -694.53515625,9.50390625 -47.736328125,20.537109375 0,111.671875 47.736328125,-18.84375 z m -484.033203125,6.623046875 -34.443359375,17.380859375 0,94.962890625 34.443359375,-16.158203125 z m 4425.447265625,18.935546875 0,138.078125 28.5234375,23.6484375 0,-135.37890625 z m -2356.0859375,3.544921875 -106.09765625,29.859375 0,165.8671875 106.09765625,-26.09375 z m -1007.947265625,3.080078125 -66.375,23.6171875 0,131.50390625 66.375,-21.263671875 z m -656.8515625,2.0078125 -45.40625,19.53515625 0,108.931640625 45.40625,-17.923828125 z m -461.98828125,1.41015625 -33.0078125,16.65625 0,92.9765625 33.0078125,-15.484375 z m 4115.4453125,12.837890625 0,172.82421875 44.46875,28.0546875 0,-168.619140625 z m -4170.48828125,14.9375 -31.66015625,15.9765625 0,91.0703125 31.66015625,-14.8515625 z m 441.419921875,3.34375 -43.244140625,18.60546875 0,106.326171875 43.244140625,-17.0703125 z m 4143.833984375,2.564453125 0,133.599609375 26.720703125,22.15625 0,-131.072265625 z m -3521.671875,2.146484375 -62.58203125,22.26953125 0,127.720703125 62.58203125,-20.046875 z m 942.482421875,7.138671875 -98.515625,27.724609375 0,159.8984375 98.515625,-24.23046875 z m -2058.869140625,11.453125 -30.392578125,15.337890625 0,89.240234375 30.392578125,-14.2578125 z m 422.197265625,7.685546875 -41.232421875,17.740234375 0,103.83984375 41.232421875,-16.275390625 z m -623.509765625,3.29296875 -88.58203125,48.13671875 0,86.439453125 88.58203125,-44.740234375 z m 4498.16796875,0.8046875 0,165.8671875 41.001953125,25.8671875 0,-161.9921875 z m -3284.50390625,6.64453125 -59.103515625,21.029296875 0,124.154296875 59.103515625,-18.93359375 z m 3670.072265625,1.814453125 0,129.404296875 25.083984375,20.798828125 0,-127.033203125 z m -1014.1796875,7.810546875 -301.765625,62.033203125 0,448.43359375 40.294921875,-5.095703125 c 5.125151527621,-6.09753632905 4.220575763863,-10.030257882724 4.44921875,-17.103515625 1.110186748095,-7.01481011352 9.379298623403,-9.805660604824 15.62109375,-8.775390625 12.146436844313,-1.537619242028 15.84958154689,-20.20042585594 5.802734375,-26.767578125 -6.466720088118,-5.292947543354 -6.958548469825,-15.003129159448 -3.6171875,-22.171875 4.7149954921,-17.123060601652 4.789783456002,-35.496974304071 12.38671875,-51.80078125 0.590374377646,-8.478421995311 -10.934900936913,-11.197425446021 -10.798828125,-19.537109375 -0.224821269695,-8.169414549585 0.256067164655,-16.556018522214 -2.451171875,-24.3984375 -2.906595775808,-18.526998583457 -4.072838442174,-37.528586935254 -10.453125,-55.310546875 -1.343520175435,-9.326404595487 5.522094453702,-17.156740963047 6.16015625,-26.25390625 1.868686543669,-10.251163143288 2.393668454744,-21.575155981753 8.92578125,-30.15234375 5.969914760697,-4.905075111111 14.957970710491,1.350946403995 20.580078125,-4.373046875 6.319149703838,-6.426909442152 8.829056904638,-16.639318162312 17.65625,-20.447265625 6.179442772943,-4.619169779081 7.586341855666,-13.905243979989 15.181640625,-16.90234375 6.255599549736,2.557553576681 10.5699038341,-8.906541089746 4.41015625,-11.28515625 -6.91711289453,-0.819755115333 -14.747498220243,0.743855836609 -19.58984375,6.11328125 -2.392961161806,5.883786928604 -4.6596852723,13.338636195942 -11.48046875,15.3515625 -10.36251019632,4.815579867719 -13.432880749166,18.554094208233 -24.830078125,21.8203125 -5.967003459675,2.259787829639 -14.364047990221,3.741361420523 -18.830078125,-2.0625 -5.082300058421,-7.925356676243 -1.801810982428,-17.643861427123 0.2578125,-26 3.503308249729,-12.383652462183 7.516987735281,-24.629865515701 10.865234375,-37.05078125 2.71899674721,-7.146771412119 7.743892990565,-13.512513382182 14.41015625,-17.34765625 7.097245267956,0.638538269113 12.060854675364,-9.178520775404 7.44140625,-14.560546875 -1.082650818926,-16.700133175902 -3.570691184363,-33.588689701158 -1.0859375,-50.263671875 2.759709908114,-10.224405640467 13.365652027438,-19.522237723987 24.3984375,-16.484375 10.444468406575,2.731534230508 17.397570856882,12.436899283487 20.53515625,22.283203125 4.999530940652,9.219714703203 14.656369989743,14.931687108769 19.16015625,24.486328125 4.55557344755,4.836597463127 3.644636405174,13.727776197231 -2.8671875,16.158203125 -4.359988784251,5.429757488485 -4.843377878717,13.009273078859 -9.673828125,18.16015625 -3.089091796432,5.889619102223 7.23537904596,9.239766818072 7.16796875,1.87890625 0.603005818409,-6.407174412927 6.94911448795,-12.375928110594 13.109375,-8.052734375 8.875170139952,4.887923040983 11.463147103045,16.4590904153 9.0546875,25.7265625 -1.650164861394,6.258167568405 -0.900448694837,12.729024493729 0.8984375,18.927734375 7.448762130822,25.66739105348 13.976308154212,105.133615442605 15.1484375,147.6640625 0.296382002382,10.754153631734 0.853898529706,21.149647272966 1.52734375,31.69140625 0.08220913047,6.61878263558 1.080181803057,13.202842896068 1.978515625,19.71875 -0.598239947789,7.399770566743 -8.461102041237,13.180597747163 -15.705078125,11.291015625 -7.916952035975,-0.804188210986 -14.513472284143,-5.657380752621 -21.083984375,-9.708984375 -8.433091339593,-0.114201818079 -2.726874198521,12.360820815431 3.515625,9.431640625 7.338941515957,3.201563387378 13.928719167855,8.645123512241 22.177734375,9.306640625 6.675680518314,1.868832846908 10.493705389823,8.710154777097 10.994140625,15.283203125 1.092017010677,6.172021328111 2.418106336458,12.447965658831 5.669921875,17.875 1.960534999347,6.334468389674 -6.829414999038,12.918686278068 -12.041015625,8.3125 -3.892411674415,-2.627464775468 -10.99163418912,-3.855422822864 -13.74609375,0.88671875 -0.194760817928,6.415789866795 3.822294398714,13.244330195808 0.068359375,19.5859375 -3.587300703474,4.90754288045 -1.348215303239,14.50373143853 5.6875,14.40234375 6.84653684868,0.297653215861 3.163963526157,12.209954089396 -2.34375,6.740234375 -7.302067559425,-1.267250670857 -6.823985014867,9.896293032204 0.490234375,8.3359375 6.669748854792,2.200204249888 7.058723972314,9.012317636129 15.16796875,7.6328125 5.664929305936,-1.093627883399 11.759468379222,0.117220603155 17.146484375,-2.0234375 5.155080070579,-2.548894827689 9.578815582424,-6.002725450282 8.25,-11.369140625 -0.01950934488,-8.604628602407 -1.024407827602,-17.302512736623 0.212890625,-25.849609375 1.669296567368,-6.996220602753 9.436244219245,-8.574181228113 15.525390625,-7.837890625 6.800010987449,-0.113560531242 9.594791906983,-9.964557668668 2.21484375,-11.83203125 -7.280022245631,-1.781036761595 -13.100385241099,4.960269831642 -20.328125,4.611328125 -5.964588144627,0.883916741534 -10.569211494193,-4.382665900368 -10.7109375,-10.001953125 -0.44104685237,-7.32949330636 0.755857948233,-14.661580621517 0.279296875,-22.0078125 -0.340713641764,-11.255805583065 -0.904714636694,-22.736996636665 2.3359375,-33.666015625 4.226480237263,-17.958752198567 6.126847554651,-36.375362288245 10.869140625,-54.220703125 2.197026289571,-9.466900601591 4.818536852946,-18.890035277964 6.130859375,-28.5234375 0.468823282574,-12.07748002083 -2.793517064589,-25.549036274032 4.55859375,-36.23828125 3.596380511048,-5.258653816687 5.738766492614,-12.299136686922 2.830078125,-18.35546875 -3.836492978763,-13.347059155787 -7.333308484811,-27.418915568377 -4.625,-41.337890625 1.309132836983,-11.031356138048 2.649692819254,-22.068951929131 3.31640625,-33.162109375 2.283288109807,-6.146062985581 9.697396064592,-3.741314537513 14.42578125,-2.43359375 5.21852306506,3.074388421067 16.928992722324,0.987840609893 13.396484375,-7.044921875 -3.003010964822,-6.14641908069 -10.872380383637,-5.657560519432 -16.05078125,-2.890625 -5.471535081214,1.78290623675 -13.263900567157,2.952095449442 -16.921875,-2.607421875 -3.348151005076,-5.642340741374 -2.28419133984,-12.513074050199 -3.2734375,-18.732421875 0.282691263723,-12.073376002862 9.56277434221,-20.84823015454 15.87109375,-30.2265625 3.150549528687,-5.346109442491 3.686287587081,-12.837308786326 -0.841796875,-17.595703125 -3.629588640045,-5.667484264366 -2.935536417228,-15.077475883374 3.943359375,-17.919921875 5.774241209916,-1.276523430326 15.644742294025,4.671266534681 16.755859375,-4.921875 1.284864646496,-6.674314722679 3.409155953218,-13.090595956722 5.283203125,-19.599609375 1.63687249496,-7.976143782891 2.962887821696,-17.450016710718 10.625,-22.0390625 8.586737673783,-5.116055715961 19.287108367465,-1.998504892675 27.17578125,2.984375 5.400661010755,2.95863492302 11.936000034775,6.4736891649 13.3984375,12.955078125 0.03974228829,5.730452585212 -0.790936805138,11.741357115518 2.255859375,16.939453125 3.156360057845,7.157134458436 4.926719660775,14.79102969612 5.775390625,22.544921875 0.882468632723,4.883726998316 0.86482445092,10.063854095969 2.37109375,14.75 5.042640749642,7.544649541376 17.045406634353,5.498698411142 21.185546875,14.068359375 8.34605212171,11.819588648405 7.569049920437,26.936381713259 11.498046875,40.322265625 1.127558741374,4.61017776966 -1.952544426017,11.29694371595 2.8203125,14.314453125 4.561495370971,0.718634985049 6.522587837884,-4.860467007304 9.50390625,-7.353515625 3.468292732457,-4.534924619661 10.957136352596,-4.213316886934 14.486328125,-0.013671875 2.000179038448,4.048757050608 6.034550265939,12.711697450709 10.388671875,5.646484375 3.148891152711,-4.504833318879 -5.25202138031,-8.15893563404 0.642578125,-11.646484375 6.025707812909,-4.642676061276 11.561135189899,1.718734708375 11.162109375,7.81640625 1.128198442537,6.466331479835 2.638726882638,13.292730643293 7.369140625,18.1640625 10.63817773544,14.836983538 19.01407177322,31.20832564161 30.03125,45.765625 4.600996346573,3.499528215325 10.322983568002,-2.498984231971 9.978515625,-7.287109375 -2.036422997299,-5.585765306506 -2.166215286201,-11.871990960671 0.318359375,-17.396484375 1.522387003737,-5.368370982996 7.717444561342,-9.684071312773 13.103515625,-6.70703125 4.874341085851,1.76279441306 8.618350185835,7.72054345166 14.30859375,6.373046875 5.898355103961,-1.603691333915 7.241588465012,-11.487941864887 0.8828125,-13.451171875 -6.317583829611,-1.635151111991 -12.540106453557,-7.649121502028 -10.12109375,-14.6328125 1.450162479719,-5.828624307881 5.588712551448,-11.140301484746 11.248046875,-13.2109375 4.361310560361,-3.149039159327 5.871842262439,-8.979786234183 5.27734375,-14.11328125 1.51735841136,-7.373745844618 12.252686295582,-6.273840536407 16.2421875,-1.640625 4.391964116318,5.35195836435 1.256079945409,12.489253210264 0.333984375,18.484375 0.270516970998,8.143436752288 -2.52034561815,15.82395001847 -5.59375,23.21484375 -2.743978687257,7.79299626435 -7.004026983497,15.71029763135 -5.90234375,24.2109375 1.428246925636,9.089506397113 9.315089841225,15.100764919027 12.408203125,23.521484375 2.432415769243,6.299094568567 5.265870253698,12.787936494329 10.3828125,17.3984375 1.82149485078,4.861133688989 9.550967019375,11.253673797563 13.599609375,5.326171875 2.765120466717,-5.136981425242 3.611853670674,-11.094430351739 4.74609375,-16.7578125 0.350662502929,-5.244439848574 2.293699913022,-10.135565961312 6.134765625,-13.755859375 3.199485272021,-3.811653770812 5.554544480137,-8.257442303613 7.328125,-12.859375 4.017191483258,-6.145405083902 10.946783962252,-9.259987228585 16.650390625,-13.4296875 3.852262037212,-4.915469954687 3.370888541494,-13.299976984461 10.17578125,-15.630859375 7.997400922557,-2.271904958548 15.411078162258,7.13435636537 12.826171875,14.6015625 -1.303086715684,10.096620808592 -0.526157920558,20.5480727543 -3.306640625,30.39453125 -2.356359490189,4.850602830898 -9.871459084866,6.955953705869 -8.93359375,13.2734375 1.958704303177,7.164076841064 1.318786570907,15.748453309092 7.392578125,21.119140625 3.784889913597,3.558048485427 9.020981902914,6.068055012595 10.021484375,11.71875 1.793500674579,6.532738873493 2.921878210269,14.149019539032 9.12109375,18.142578125 5.817439979925,5.129297096225 15.304685038873,0.561243480314 13.67578125,-7.404296875 -1.234834735787,-6.923895273287 2.251722683278,-12.798604461806 6.49609375,-17.873046875 1.654121184271,-6.455283416928 0.767429113378,-14.55707267678 8.046875,-18.2578125 8.159707865133,-4.621017124233 14.510064981899,-11.783188088176 19.2421875,-19.79296875 5.113983164378,-2.932424579697 9.915864708061,2.880774560075 10.185546875,7.720703125 -0.319574109694,5.094595027978 -0.14374830845,10.246014866817 -0.294921875,15.390625 -0.340752884523,5.960986912323 -1.248893836392,12.203259122153 -4.212890625,17.435546875 -3.850140691887,4.462294722669 -11.478030602106,3.867043117517 -15.109375,-0.56640625 -4.856435273035,-4.115271242143 -14.920021533113,0.704615851646 -12.0703125,7.373046875 2.929516947235,5.513989782191 9.903430334022,2.809639119726 14.83984375,3.603515625 5.468952567575,1.122227525 6.861854525962,7.467324751945 8.61328125,11.955078125 1.724319940637,6.036125171454 7.229968864391,9.582334187441 10.646484375,14.5625 4.179412835977,5.214771517444 8.157323576741,10.594731200441 12.560546875,15.626953125 7.686225672974,2.707466493911 9.614661733914,-7.412642622904 11.830078125,-12.453125 3.771758175538,-6.237979580801 6.803099459871,-13.022719835035 11.083984375,-18.890625 5.262812161896,-4.565029448236 9.352695482809,-10.253185257492 13.5546875,-15.759765625 7.442808098869,-5.713863856959 19.80443336959,0.689148442571 19.44921875,10.08203125 0.325252199546,7.247689013302 -3.39983663015,14.629878355855 -0.546875,21.720703125 0.298088422828,5.570318912826 -6.211543891481,8.318833932603 -10.875,6.7109375 -4.106954742637,-2.300172389005 -10.164660416962,-6.146359411221 -12.68359375,0.728515625 -2.017974343343,9.06637674161 9.129245985647,4.115406601123 13.826171875,5.484375 6.361431783962,2.664965480013 0.800937738155,10.446528262012 -4.73828125,8.31640625 -5.176466854306,1.762794824062 5.324803276126,4.250268810999 7.529296875,4.193359375 5.046416881607,0.818710879476 8.960257123269,4.819064481976 11.427734375,9.08203125 2.098951955604,3.873552011728 3.232081488751,8.447019526624 6.609375,11.490234375 7.426996034086,3.121338261895 11.279030266285,-5.709288384754 12.76953125,-11.287109375 3.720381705064,-6.420194736279 7.415876180129,-12.880725465967 10.404296875,-19.671875 4.922206369379,-8.109329221033 14.994489537424,-14.751944639991 24.6796875,-11.447265625 8.170184326151,3.608778405717 11.255683828006,15.498893970042 5.466796875,22.43359375 0.0146909314,5.341847669646 -4.866484963567,14.057926279008 -11.048828125,10.00390625 -3.884393886236,-3.276392115828 -14.158618950103,-3.802411579721 -13.318359375,3.361328125 2.640158382107,7.415417150065 13.731276785064,1.109006036475 16.734375,8.24609375 2.496833127073,6.141729219442 9.353817502882,8.816227181244 14.580078125,4.361328125 6.406839263724,-2.213442164937 11.94559283109,4.258016206979 11,10.369140625 1.136602679758,8.786947966526 5.304159036226,17.216508569105 4.060546875,26.25 -0.07682759316,10.751073471588 5.101997186024,21.23393269448 2.896484375,31.998046875 -3.24634714009,7.075822957342 -14.210766219854,3.189065923707 -14.27734375,-3.998046875 -2.357482899105,-6.849420138149 -5.432594836541,-14.058640499765 -11.63671875,-18.283203125 -2.016832456736,-4.053103723867 -14.140342271512,-6.481079025298 -11.1328125,0.75 4.675921936165,4.724394616596 12.690186049589,5.565784864416 15.69140625,12.0625 3.8677288896,5.844104343624 4.046909135375,13.060938706527 4.486328125,19.796875 2.173723124662,10.748897652256 8.352271382657,20.700692247127 7.623046875,31.97265625 1.509130363756,12.428898003946 9.059357387818,23.754915296061 7.701171875,36.59765625 -0.203192690117,10.89506052119 -4.187113244169,21.670522704363 -1.919921875,32.578125 1.23773848204,8.671118768596 2.403560019232,17.502391472217 0.978515625,26.224609375 -1.043236320767,22.992697402618 -0.67045624019,46.020303577001 0.013671875,69.017578125 -1.805785593401,6.630924564423 -10.021787517179,4.070550504035 -14.767578125,2.806640625 -7.750841162131,0.836612858906 -2.622952966157,13.50543143689 4.0703125,10.51171875 10.629253024783,3.098341789284 13.305626549949,9.711411478691 18.654296875,11.708984375 l 11.10546875,3.431640625 0,-368.693359375 z m -1772.669921875,6.44921875 -91.72265625,25.814453125 0,154.341796875 91.72265625,-22.556640625 z m -1542.068359375,2.736328125 -39.359375,16.93359375 0,101.46875 39.359375,-15.53515625 z m 560.5625,16.16015625 -55.91015625,19.89453125 0,120.77734375 55.91015625,-17.908203125 z m 3450.658203125,7.62109375 0,159.44921875 37.921875,23.923828125 0,-155.86328125 z m -4076.8046875,4.435546875 -37.609375,16.1796875 0,99.203125 37.609375,-14.845703125 z m -599.279296875,5.322265625 -30.751953125,16.7109375 0,84.4375 30.751953125,-15.53125 z m 2054.82421875,6.533203125 -85.60546875,24.091796875 0,149.162109375 85.60546875,-21.0546875 z m -922.3984375,9.1796875 -52.966796875,18.84765625 0,117.58203125 52.966796875,-16.966796875 z m -595.828125,5.931640625 -35.974609375,15.4765625 0,97.037109375 35.974609375,-14.19921875 z m 3097.640625,5.44921875 -226.048828125,45.6953125 0.046875,200.470703125 226.001953125,-37.6953125 z m 303.42578125,3.482421875 c 1.656756600282,7.084660676507 11.001893642975,7.176228944943 13.796875,13.4375 6.65006893596,8.71618872195 21.996877980828,7.665438684111 27.498046875,-1.779296875 0.151976110451,-7.803214378212 -9.367961003078,-10.68748159505 -15.73046875,-9.0703125 -8.580863715791,0.808739780874 -17.319839349572,-0.07536969429 -25.564453125,-2.587890625 z m 801.232421875,5.232421875 0,153.509765625 35.1796875,22.193359375 0,-150.181640625 z m -2826.10546875,10.697265625 -80.080078125,22.537109375 0,144.31640625 80.080078125,-19.6953125 z m -868.494140625,0.56640625 -50.25,17.880859375 0,114.548828125 50.25,-16.095703125 z m -567.666015625,0.37109375 -34.443359375,14.818359375 0,94.962890625 34.443359375,-13.595703125 z m 3305.353515625,17.8828125 c -5.524288925426,-0.106532664643 -12.975842504823,0.922423121629 -14.92578125,7.0078125 -1.432002497669,5.72822286139 5.923829282676,9.194481466333 10.654296875,7.345703125 5.051625969294,-1.485697354295 8.192380332025,-8.182362270717 5.84765625,-12.9140625 -0.397884809094,-0.599289366267 -0.950065806144,-1.088700593983 -1.576171875,-1.439453125 z m -3362.779296875,6.82421875 -33.0078125,14.19921875 0,92.9765625 33.0078125,-13.029296875 z m 541.458984375,4.681640625 -47.736328125,16.984375 0,111.671875 47.736328125,-15.291015625 z m 3836.533203125,1.271484375 0,147.99609375 32.72265625,20.64453125 0,-144.900390625 z m -1436.3125,4.25 -205.939453125,41.630859375 0.095703125,191.5078125 205.900390625,-34.34375 z m -1581.017578125,1.560546875 -75.076171875,21.12890625 0,139.775390625 75.076171875,-18.462890625 z m -1415.705078125,11.916015625 -31.66015625,13.62109375 0,91.0703125 31.66015625,-12.498046875 z m 517.03125,9.279296875 -45.40625,16.15625 0,108.93359375 45.40625,-14.544921875 z m 3970.26171875,12.35546875 0,142.865234375 30.515625,19.251953125 0,-139.978515625 z m -4540.09765625,1.083984375 -30.392578125,13.076171875 0,89.240234375 30.392578125,-11.998046875 z m 1343.841796875,0.451171875 -70.5234375,19.84765625 0,135.51171875 70.5234375,-17.34375 z m -1545.154296875,9.513671875 -88.58203125,41.015625 0,86.44140625 88.58203125,-37.62109375 z m 695.537109375,3.5 -43.244140625,15.388671875 0,106.326171875 43.244140625,-13.853515625 z m 2306.171875,0.701171875 -188.3984375,38.0859375 0.134765625,183.314453125 188.3671875,-31.419921875 z m -1573.708984375,19.255859375 -66.375,18.6796875 0,131.501953125 66.375,-16.32421875 z m 3364.033203125,2.21875 0,138.076171875 28.5234375,17.99609375 0,-135.37890625 z m -4168.5234375,3.453125 -41.232421875,14.671875 0,103.841796875 41.232421875,-13.208984375 z m 3294.732421875,6.9921875 c -3.70816672966,6.174029456545 -2.188043120485,13.800077252954 0.0234375,20.21484375 4.851078343741,4.330698147405 1.056219809152,14.438058867341 8.685546875,16.2890625 6.450740992558,2.54778158115 7.719407967687,10.69118916211 13.658203125,13.904296875 5.429315209455,-1.657837268257 4.962294261754,-8.688015674602 2.203125,-12.5078125 -2.97186074649,-3.267795899123 -5.358801698968,-6.884113329993 -7.119140625,-10.990234375 -1.945342802823,-4.311769654314 -5.035980036988,-7.89897527403 -8.49609375,-11.04296875 -3.973242357283,-4.670076740711 -6.259444404973,-10.434917481094 -8.955078125,-15.8671875 z m 60.080078125,9.93359375 c 3.19946661564,6.171435085701 -3.655658961805,14.429854943796 -10.310546875,12.341796875 -4.118039496162,4.954482209976 -0.542720242073,11.28641497837 1.220703125,16.416015625 1.408398037552,6.094246256235 2.206163623104,13.540487621297 8.458984375,16.755859375 7.01910626442,1.075224431263 11.033929003451,7.97494656639 9.853515625,14.8046875 -0.771558604047,7.659906654636 7.14458185588,12.850180441395 6.80859375,20.509765625 0.78323428721,7.973216610385 1.434246852978,16.814735921488 7.19921875,22.97265625 0.820931557466,5.357349194941 10.37184575072,14.486610444913 12.0859375,5.05078125 -0.500566348006,-6.696379622851 -6.287584724601,-11.54402207374 -7.306640625,-18.208984375 -3.027669000049,-9.94914467661 -5.202728241029,-20.23446535048 -9.541015625,-29.716796875 -1.09314718582,-6.242562008641 2.898335541699,-13.043333660604 -0.953125,-18.810546875 -5.329409116709,-1.457153152237 -11.506415511571,-11.313971986346 -3.23828125,-12.970703125 6.090518806708,-1.48162351999 8.767922311943,-10.247088862547 3.962890625,-14.544921875 -4.790877908827,-6.306245994685 -12.062578612641,-9.896224468026 -18.240234375,-14.599609375 z m -1204.603515625,4.236328125 -173.0078125,34.974609375 0.169921875,175.791015625 172.982421875,-28.853515625 z m -2883.763671875,0.662109375 -30.751953125,14.23828125 0,84.439453125 30.751953125,-13.060546875 z m 664.86328125,2.619140625 -39.359375,14.005859375 0,101.46875 39.359375,-12.607421875 z m 762.880859375,0.92578125 -62.58203125,17.61328125 0,127.72265625 62.58203125,-15.392578125 z m 2735.265625,3.5234375 c -2.924545710696,6.223702956886 1.860200550296,12.279969044347 5.34765625,17.091796875 6.929570219289,9.954322601262 8.44621285003,22.865418335882 16.626953125,32.064453125 6.287366323959,2.008251663662 9.987888187282,-7.694464474438 5.462890625,-11.578125 -5.050592762211,-3.589516387302 -9.144692100889,-8.094941679567 -11.484375,-13.9296875 -4.404919958295,-8.415669343653 -8.446850380775,-17.46988411053 -15.953125,-23.6484375 z m 786.40625,1.99609375 0,133.599609375 26.720703125,16.859375 0,-131.07421875 z m -4350.13671875,16.890625 -37.609375,13.3828125 0,99.205078125 37.609375,-12.048828125 z m 724.4296875,6.869140625 -59.103515625,16.6328125 0,124.154296875 59.103515625,-14.537109375 z m 3670.072265625,8.42578125 0,129.404296875 25.083984375,15.82421875 0,-127.03125 z m -2319.447265625,0.42578125 -159.4296875,32.23046875 0.197265625,168.859375 159.408203125,-26.587890625 z m -2137.736328125,6.583984375 -35.974609375,12.80078125 0,97.037109375 35.974609375,-11.5234375 z m 688.828125,12.224609375 -55.91015625,15.734375 0,120.77734375 55.91015625,-13.75 z m 3026.44140625,7.58203125 c 5.401449512545,6.350493619389 -2.710317543151,12.888408045396 -8.423828125,14.12109375 -2.988791278771,4.858121003297 1.151793006136,10.272656089268 2.609375,14.982421875 2.87815747105,5.411427499872 11.619171018978,6.261386639079 14.845703125,0.744140625 5.268767119176,-8.295009039761 0.843971001898,-18.8797507002 -5.228515625,-25.4375 -1.24903783578,-1.485292756169 -2.521278061115,-2.95278481253 -3.802734375,-4.41015625 z m -3775.236328125,1.53125 -34.443359375,12.255859375 0,94.962890625 34.443359375,-11.033203125 z m 3720.2421875,0.71875 c -3.716862646745,7.943764141553 -0.425695104577,17.027767874445 -3.220703125,25.177734375 0.925521885396,9.097879100187 9.253829565494,15.37935563776 17.48828125,17.787109375 3.053065536163,2.931344230298 9.271903177052,10.553761460149 12.955078125,4.953125 1.176971491072,-7.322305644082 -8.477687911826,-10.570122732207 -9.390625,-17.5625 -5.538347536535,-10.356624535609 -12.874646495377,-19.676268193416 -17.83203125,-30.35546875 z m 337.77734375,0.123046875 0,172.82421875 44.46875,19.240234375 0,-168.619140625 z m -2053.365234375,10.26171875 -147.388671875,29.794921875 0.220703125,162.45703125 147.37109375,-24.580078125 z m -1348.859375,5.955078125 -52.966796875,14.908203125 0,117.580078125 52.966796875,-13.025390625 z m -713.220703125,3.375 -33.0078125,11.744140625 0,92.9765625 33.0078125,-10.57421875 z m 3894.87890625,5.45703125 c -0.229612132572,-0.0015648424 -0.463625773116,0.0095259052 -0.69921875,0.033203125 -8.184101625992,1.960732509846 -4.072975302411,13.579728210304 2.79296875,14.470703125 7.441788062448,4.511433392519 7.316034969235,14.009228147195 9.376953125,21.470703125 -0.01528580636,5.388664906639 6.470925492974,7.819072055604 10.30078125,4.423828125 5.375797837634,-3.444563574732 1.884733088779,-9.752768339553 -1.052734375,-13.5703125 -4.651991078256,-6.832290134861 -10.328434484497,-13.221215602266 -12.814453125,-21.248046875 -1.701984152679,-2.785409913316 -4.460114886418,-5.556605488673 -7.904296875,-5.580078125 z m 294.12890625,13.734375 0,165.869140625 41.001953125,17.73828125 0,-161.990234375 z m -801.6875,0.08203125 c -8.57998782333,0.154217924297 -16.494103312953,6.326876424987 -25.20703125,3.921875 -6.047531546774,2.482319688601 -11.92090503926,5.397966360754 -18.09765625,7.560546875 1.656955897992,5.733525872042 8.691246211642,5.027676332569 13.15234375,3.416015625 4.422284842363,-2.241635055356 9.299577073742,-0.859868551619 13.724609375,0.587890625 5.061582403817,1.904702000852 10.79149437819,2.10513311666 15.615234375,-0.62109375 4.368045230284,-2.008382197996 12.719800035798,-8.96892659081 7.310546875,-13.57421875 -1.947306086992,-1.138350787105 -4.291771551457,-1.309868812671 -6.498046875,-1.291015625 z m -3442.36328125,0.3125 -31.66015625,11.265625 0,91.0703125 31.66015625,-10.142578125 z m 680.134765625,1.841796875 -50.25,14.142578125 0,114.548828125 50.25,-12.357421875 z m 3233.19140625,0.876953125 c -5.947312809895,4.019454068583 0.972989850534,11.307144248304 -2.076171875,16.400390625 -2.839009486572,2.189439986687 -13.553780480983,3.154466997065 -7.1640625,8.287109375 4.754057180774,4.265587722648 8.986397012207,10.895860041374 16.12890625,10.7578125 5.962304166689,-0.0665323206 13.360379736434,2.151125796482 17.84375,-3.08984375 3.322383451854,-4.68211251066 -1.193277984152,-9.943973829034 -5.55078125,-11.84375 -4.451688604676,-2.174954100109 -9.389443679065,-4.148379683372 -11.865234375,-8.783203125 -2.526069072299,-3.854513994986 -4.217746034866,-8.259463896626 -7.31640625,-11.728515625 z m -1974.71875,4.453125 -136.6640625,27.626953125 0.240234375,156.521484375 136.6484375,-22.79296875 z m 1855.69921875,1.408203125 c -3.101155048342,6.553641027831 3.543277216638,12.474071398171 2.599609375,19.076171875 1.29180110783,6.669188273836 9.944905151528,9.801972333742 9.19921875,17.16796875 -0.954665261297,14.215564819348 6.484328105404,26.934553280449 11.35546875,39.78515625 2.080484019947,5.27502303024 12.386547635305,7.692845841395 13.880859375,0.80859375 0.629380687948,-7.04746674743 -8.252639585482,-11.387878712035 -6.388671875,-18.67578125 1.469906287605,-7.536739862724 -3.65980733755,-14.117301779591 -3.982421875,-21.29296875 -0.499876773486,-7.036770328804 6.885027533657,-11.565420107438 6.228515625,-18.375 -1.119934737966,-7.730501042231 -9.800655005292,-12.896348613349 -17.19921875,-10.7265625 -6.014413955025,0.508423752619 -13.734797056519,-1.17825779887 -15.693359375,-7.767578125 z m -3847.111328125,10.208984375 -30.392578125,10.814453125 0,89.2421875 30.392578125,-9.736328125 z m 4072.787109375,1.5078125 -0.955078125,0.232421875 c -5.234377371157,5.584401551022 3.920609636785,10.180009227187 4.66015625,15.591796875 1.981086398191,7.520732737713 6.032920498229,14.194734017593 9.728515625,20.951171875 2.274320872327,5.026916851797 9.147282030995,3.989881231762 12.4296875,0.65234375 3.762350761244,-3.056755966968 5.224865715725,-9.612914024452 0.8125,-12.8203125 -4.915683277489,-3.916520334973 -12.917139950857,-3.512971940277 -15.771484375,-9.98046875 -2.433589251023,-5.374241402279 -3.088694050566,-14.841606872383 -10.904296875,-14.626953125 z m -38.4765625,3.24609375 c -4.251169681459,4.837956151612 -0.214872043344,11.050195515312 0.302734375,16.443359375 -0.411532266553,8.590077638687 0.232634882,18.948109281535 7.84375,24.466796875 5.958295592493,3.512051691545 12.355228112125,8.600529760919 19.50390625,8.03515625 5.726393046704,-3.692753514334 2.551223482507,-14.235518697973 -4.248046875,-14.1953125 -7.661862226659,-2.515092582089 -15.776436719817,-7.824022334476 -17.1796875,-16.373046875 -1.929307447188,-6.167129112046 -2.745806678326,-12.79755656112 -6.22265625,-18.376953125 z m -3385.00390625,1.8359375 -47.736328125,13.43359375 0,111.671875 47.736328125,-11.740234375 z m -850.619140625,2.361328125 -88.58203125,33.8984375 0,86.439453125 88.58203125,-30.5 z m 4566.0390625,7.6484375 0,159.44921875 37.921875,16.40625 0,-155.861328125 z m -2538.8828125,5.25390625 -127.06640625,25.6875 0.255859375,151.001953125 127.0546875,-21.19140625 z m -1256.0078125,7.1015625 -45.40625,12.779296875 0,108.93359375 45.40625,-11.16796875 z m 3535.705078125,11.8125 c -2.386798630791,8.661642075258 -0.395226506246,17.6344171099 0.44140625,26.36328125 3.523037340966,7.424345500549 11.94990917111,10.412501625136 19.455078125,12.00390625 7.180650766693,3.347556290456 7.3506275547,13.894952982632 15.2734375,16.26171875 6.018700439669,4.130951348353 13.404514528452,-6.137496322759 8.064453125,-10.796875 -7.900342466126,-7.104447759395 -18.357670291262,-11.499536998041 -24.134765625,-20.806640625 -4.217281085803,-5.421566886101 -9.588697893853,-9.866510978912 -13.84375,-15.20703125 -1.632999226726,-2.679083641443 -3.018042201345,-5.568626217748 -5.255859375,-7.818359375 z m -318.03125,5.392578125 c -3.536238632877,6.809684253123 -12.332932231589,4.684000733795 -18.23046875,7.478515625 -7.216376242254,3.906776183422 -8.569188703572,14.287800540953 -4.41796875,20.890625 2.041538946297,6.725100981611 -6.879186854657,13.425565600014 -12.666015625,9.220703125 -14.09818722022,-4.084702764597 -28.480762664389,1.128549731342 -42.70703125,1.27734375 -6.516789279743,0.730297446115 -7.208642648551,8.701913655165 -6.052734375,13.798828125 -1.184249335789,6.157428930419 5.224260180873,13.948625707825 11.123046875,8.759765625 5.114780294989,-4.513157221645 0.03606509285,-15.024392927371 8.5,-16.380859375 5.598386988873,-0.705386031931 11.499862873552,1.571598540746 15.63671875,5.23828125 5.332757152996,5.443743509406 -3.653990353325,11.420711088666 -0.109375,16.775390625 4.239812453862,4.232089405813 12.528831711656,2.5751220743 14.451171875,-3.263671875 2.411585790657,-5.94418385986 0.556673332298,-13.845105076892 6.345703125,-18.1640625 6.53173349051,-5.337558859318 16.385536252528,2.220929177719 22.283203125,-4.572265625 5.076458621934,-5.300086916588 4.545603516413,-13.869126113027 10.46484375,-18.61328125 4.540082369612,-2.464740540151 6.608233839535,-8.176917010984 4.728515625,-12.982421875 -1.26432780206,-4.763086259365 -5.852171126144,-6.656655152937 -9.349609375,-9.462890625 z m 640.029296875,3.5546875 0,153.509765625 35.1796875,15.220703125 0,-150.18359375 z m -3933.314453125,0.51953125 -43.244140625,12.169921875 0,106.326171875 43.244140625,-10.634765625 z m -805.58203125,0.826171875 -30.751953125,11.767578125 0,84.4375 30.751953125,-10.587890625 z m 1983.2265625,1.919921875 -118.447265625,23.9453125 0.26953125,145.861328125 118.435546875,-19.755859375 z m 1941.5703125,2.646484375 c -0.541744347502,-0.02505442126 -1.090109493211,0.03217598579 -1.611328125,0.162109375 -10.460515312239,0.345548745147 -20.968489214523,0.783267754743 -31.275390625,2.734375 3.832432926459,5.826876371822 13.204117052916,3.94699502232 16.2421875,10.6171875 4.283750279297,5.004397242029 11.180458323464,7.229291575305 17.63671875,6.67578125 6.184947168594,-4.246881827082 6.530124238902,-14.046483981785 1.53515625,-19.33984375 -0.736353938985,-0.537925431111 -1.624436504163,-0.80785200624 -2.52734375,-0.849609375 z m -3191.2421875,14.87890625 -41.232421875,11.603515625 0,103.841796875 41.232421875,-10.140625 z m 3086.6328125,1.236328125 c -0.632485602296,-0.01358666823 -1.219450691311,0.02724627015 -1.720703125,0.12109375 -7.581248691388,0.814206157628 -15.216313459107,1.096636246482 -22.767578125,2.19140625 -5.292903835076,5.288977173528 1.513952058145,15.748595675359 8.494140625,13.072265625 8.073083944306,-1.690742922392 15.213888277513,-6.365858117125 23.40234375,-7.634765625 3.747652268634,-4.952920816617 -2.980803908928,-7.654893322364 -7.408203125,-7.75 z m -185.94921875,5.69921875 -225.966796875,31.951171875 0.01953125,84.5703125 225.947265625,-28.578125 z m 1162.958984375,3.01171875 0,147.994140625 32.72265625,14.158203125 0,-144.900390625 z m -2957.53125,1.548828125 -110.67578125,22.373046875 0.28125,141.05859375 110.666015625,-18.458984375 z m -1174.802734375,7.8359375 -39.359375,11.076171875 0,101.470703125 39.359375,-9.681640625 z m -65.583984375,18.45703125 -37.609375,10.583984375 0,99.205078125 37.609375,-9.25 z m 4252.17578125,0.763671875 0,142.86328125 30.515625,13.203125 0,-139.978515625 z m -3145.958984375,0.06640625 -103.64453125,20.953125 0.291015625,136.560546875 103.63671875,-17.287109375 z m 1655.486328125,6.953125 -205.873046875,29.111328125 0.041015625,80.791015625 205.85546875,-26.037109375 z m 797.384765625,0.0390625 c -13.605805840236,-0.07025757744 -27.185935657248,0.851207409366 -40.7734375,1.416015625 -6.191762487156,-3.751225601911 -15.174111996541,3.61685052624 -12.396484375,10.408203125 -1.446873097292,5.389587614165 -12.878466830861,8.777947869301 -7.08203125,15.12109375 5.600498136726,4.35117847177 12.626244870792,0.601172705965 18.60546875,-0.740234375 6.741661201614,-1.524433088738 13.775497527277,-2.056929948947 20.623046875,-0.94140625 4.973260152445,2.821763064268 9.731367250277,8.467443898099 16.044921875,6.546875 7.231692042647,-3.076813502042 7.200368120745,-12.436605412915 12.728515625,-17.2109375 4.584576968067,-6.953317513391 -7.858883936605,-8.472101541176 -7.75,-14.599609375 z m -3621.76953125,9.818359375 -35.974609375,10.123046875 0,97.037109375 35.974609375,-8.845703125 z m 1043.23046875,8.59375 -97.263671875,19.662109375 0.298828125,132.341796875 97.255859375,-16.220703125 z m 3322.25,1.21875 0,138.076171875 28.5234375,12.33984375 0,-135.37890625 z m -4425.447265625,7.064453125 -34.443359375,9.69140625 0,94.96484375 34.443359375,-8.470703125 z m 3748.935546875,2.75 c -6.342149398014,-0.09103664921 -12.367057475888,6.348125651975 -11.091796875,12.794921875 -1.972956414413,7.633820115766 2.5539862601,17.058396515421 10.63671875,18.68359375 5.820779945388,2.540733053439 13.709095876526,2.22190557455 17.943359375,-3.048828125 4.382930071835,-0.834526587063 11.374420676469,-0.349359695175 12.759765625,-5.654296875 -1.373070475405,-4.326721729717 -4.118355835172,-8.236682149608 -6.15625,-12.341796875 -2.572214088885,-4.915844716249 -7.493088204578,-8.156138804587 -12.9609375,-8.875 -2.775782475727,-0.559610574702 -5.602082472532,-0.80108566678 -8.4140625,-1.099609375 -0.898629482607,-0.298473034531 -1.810775532427,-0.445979139401 -2.716796875,-0.458984375 z m -1113.634765625,5.732421875 -188.34375,26.630859375 0.05859375,77.3359375 188.330078125,-23.8203125 z m -1650.0546875,7.078125 -91.453125,18.48828125 0.302734375,128.376953125 91.44921875,-15.25390625 z m -1042.671875,0.599609375 -33.0078125,9.2890625 0,92.9765625 33.0078125,-8.1171875 z m 4530.2109375,1.732421875 0,133.599609375 26.720703125,11.560546875 0,-131.072265625 z m -638.134765625,9.85546875 c -0.525296457497,-0.0010934712 -1.052280982759,0.02359592406 -1.576171875,0.07421875 -8.658501690004,-0.238052146848 -16.833035039048,4.565935607764 -25.54296875,3.068359375 -6.519261359254,2.353673326276 -8.632566988295,10.582125141923 -6.69140625,16.69921875 -4.691231009617,5.876361767887 5.387448425624,13.330106181185 10.201171875,8.076171875 7.522535173721,0.487799895227 11.896147771442,10.002045660649 19.9453125,8.107421875 7.601663554869,-1.647077888629 7.987937643526,-10.907027259861 13.033203125,-15.4453125 5.752138177802,-4.039487211817 8.1261464901,-13.160928978712 0.90234375,-17.1015625 -2.933356290509,-2.215728514113 -6.594409172525,-3.470861326735 -10.271484375,-3.478515625 z m -3947.119140625,3.90234375 -31.66015625,8.91015625 0,91.0703125 31.66015625,-7.78515625 z m 3615.439453125,5.283203125 -3113.458984375,363.689453125 57.611328125,3.794921875 3012.6328125,-341.8671875 480.1640625,138.58984375 85.6875,-5.001953125 z m -2628.6484375,1.052734375 -86.1484375,17.4140625 0.30859375,124.640625 86.14453125,-14.3671875 z m 1533.056640625,2.72265625 -172.962890625,24.45703125 0.072265625,74.1640625 172.951171875,-21.875 z m 2109.771484375,0.57421875 0,129.404296875 25.083984375,10.8515625 0,-127.03125 z m -4682.423828125,5.228515625 -30.392578125,8.5546875 0,89.240234375 30.392578125,-7.474609375 z m -201.3125,7.939453125 -88.58203125,26.77734375 0,86.439453125 88.58203125,-23.380859375 z m 1136.400390625,4.66015625 -81.29296875,16.43359375 0.314453125,121.1171875 81.2890625,-13.55859375 z m 3140.896484375,3.025390625 c -6.876459924553,0.194272297096 -13.83985231871,0.168190247851 -20.568359375,1.791015625 0.73957540894,9.053825519536 3.223939037226,19.255600937363 11.326171875,24.52734375 6.981106226287,2.314372938077 14.031783961586,-3.42002722813 16.177734375,-9.833984375 5.217134061095,-4.128490239493 5.475974148152,-15.573189287746 -2.560546875,-16.3046875 -1.456055323382,-0.107285315491 -2.927167000242,0.05342585501 -4.375,-0.1796875 z m -1712.70703125,8.177734375 -159.390625,22.537109375 0.08203125,71.2421875 159.3828125,-20.158203125 z m -1526.818359375,8.736328125 -76.8359375,15.533203125 0.314453125,117.78515625 76.833984375,-12.814453125 z m 3281.859375,4.17578125 c -5.055757462567,0.0695036863 -10.300461545704,2.438380723455 -10.841796875,7.873046875 -0.945973797067,6.121435633278 -2.641706790938,13.409452271352 1.771484375,18.62890625 6.857306757183,3.68548423011 15.229866808053,0.429095150339 22.091796875,4.099609375 7.128441035112,1.360008816796 14.090399288925,-3.884868039212 16.541015625,-10.375 3.910803655004,-5.115208844425 4.707835736673,-14.398762368537 -1.841796875,-17.748046875 -7.13586602894,-3.759687965878 -15.354398802738,-0.584763867268 -22.91015625,-1.810546875 -1.462000399867,-0.459444282551 -3.125294387477,-0.691136645436 -4.810546875,-0.66796875 z m -4429.67578125,4.48828125 -30.751953125,9.296875 0,84.4375 30.751953125,-8.1171875 z m 2481.6328125,9.890625 -147.357421875,20.8359375 0.09375,68.541015625 147.349609375,-18.63671875 z m -1427.052734375,0.29296875 -72.736328125,14.705078125 0.318359375,114.6328125 72.732421875,-12.130859375 z m -88.2734375,17.845703125 -68.955078125,13.939453125 0.318359375,111.646484375 68.955078125,-11.501953125 z m 1336.84765625,7.09765625 -136.63671875,19.3203125 0.1015625,66.037109375 136.630859375,-17.28125 z m -1457.310546875,13.1171875 -14.48828125,2.94921875 0,47.8984375 14.48828125,-2.72265625 z m -37.322265625,7.595703125 -14.140625,2.87890625 0,47.3203125 14.140625,-2.65625 z m 1329.099609375,2.693359375 -127.044921875,17.962890625 0.107421875,63.712890625 127.0390625,-16.068359375 z m -1365.529296875,4.72265625 -13.8046875,2.80859375 0,46.755859375 13.8046875,-2.59375 z m -35.56640625,7.23828125 -13.48046875,2.744140625 0,46.205078125 13.48046875,-2.533203125 z m 3798.125,3.279296875 0,172.826171875 44.46875,10.423828125 0,-168.619140625 z m -3832.861328125,3.791015625 -13.166015625,2.6796875 0,45.66796875 13.166015625,-2.474609375 z m 1281.8828125,2.736328125 -118.4296875,16.74609375 0.115234375,61.54296875 118.423828125,-14.978515625 z m -1315.814453125,4.169921875 -12.865234375,2.6171875 0,45.142578125 12.865234375,-2.41796875 z m -33.15625,6.748046875 -12.57421875,2.55859375 0,44.62890625 12.57421875,-2.36328125 z m -32.408203125,6.595703125 -12.291015625,2.501953125 0,44.126953125 12.291015625,-2.310546875 z m 4005.919921875,0.16015625 0,165.869140625 41.001953125,9.609375 0,-161.990234375 z m -2768.080078125,2.623046875 -110.66015625,15.646484375 0.119140625,59.517578125 110.65625,-13.99609375 z m -1269.521484375,3.666015625 -12.01953125,2.4453125 0,43.634765625 12.01953125,-2.2578125 z m -30.984375,6.3046875 -11.75390625,2.392578125 0,43.15625 11.75390625,-2.208984375 z m 306.216796875,4.85546875 -14.48828125,2.6328125 0,47.8984375 14.48828125,-2.40625 z m -336.521484375,1.3125 -11.5,2.341796875 0,42.685546875 11.5,-2.162109375 z m 1196.66015625,2.830078125 -103.630859375,14.65234375 0.12109375,57.62109375 103.62890625,-13.107421875 z m 2970.1015625,0.736328125 0,159.44921875 37.921875,8.890625 0,-155.86328125 z m -3867.5625,1.904296875 -14.140625,2.568359375 0,47.322265625 14.140625,-2.349609375 z m -328.849609375,0.564453125 -11.25390625,2.291015625 0,42.2265625 11.25390625,-2.115234375 z m -29.015625,5.90625 -11.015625,2.2421875 0,41.775390625 11.015625,-2.068359375 z m 321.435546875,0.1484375 -13.8046875,2.5078125 0,46.7578125 13.8046875,-2.29296875 z m -349.837890625,5.6328125 -10.783203125,2.193359375 0,41.337890625 10.783203125,-2.02734375 z m 314.271484375,0.830078125 -13.48046875,2.44921875 0,46.20703125 13.48046875,-2.240234375 z m 843.8046875,2.04296875 -97.25390625,13.751953125 0.126953125,55.841796875 97.25,-12.30078125 z m -1185.884765625,2.78515625 -10.55859375,2.150390625 0,40.904296875 10.55859375,-1.984375 z m 4344.451171875,0.849609375 0,153.509765625 35.1796875,8.24609375 0,-150.181640625 z m -4037.107421875,0.634765625 -13.166015625,2.392578125 0,45.66796875 13.166015625,-2.1875 z m -334.57421875,4.05859375 -10.341796875,2.10546875 0,40.482421875 10.341796875,-1.943359375 z m 300.642578125,2.107421875 -12.865234375,2.337890625 0,45.142578125 12.865234375,-2.13671875 z m -327.314453125,3.322265625 -10.130859375,2.060546875 0,40.0703125 10.130859375,-1.904296875 z m 294.158203125,2.703125 -12.57421875,2.28515625 0,44.626953125 12.57421875,-2.087890625 z m 827.689453125,0.216796875 -91.4453125,12.9296875 0.12890625,54.16796875 91.44140625,-11.56640625 z m -1352.345703125,1.0390625 -88.58203125,19.65625 0,86.44140625 88.58203125,-16.26171875 z m 204.3671875,1.359375 -9.927734375,2.01953125 0,39.6640625 9.927734375,-1.865234375 z m 287.880859375,3.2734375 -12.291015625,2.232421875 0,44.126953125 12.291015625,-2.041015625 z m 4194.904296875,0.46484375 0,147.99609375 32.72265625,7.669921875 0,-144.900390625 z m -4506.490234375,1.0859375 -9.7421875,1.982421875 0,39.296875 9.7421875,-1.830078125 z m 279.904296875,4.20703125 -12.01953125,2.18359375 0,43.634765625 12.01953125,-1.99609375 z m 780.865234375,4.251953125 -86.142578125,12.181640625 0.130859375,52.591796875 86.140625,-10.89453125 z m -811.849609375,1.376953125 -11.75390625,2.13671875 0,43.154296875 11.75390625,-1.951171875 z m -30.3046875,5.5078125 -11.5,2.08984375 0,42.685546875 11.5,-1.91015625 z m 4342.1328125,1.419921875 0,142.865234375 30.515625,7.15234375 0,-139.978515625 z m -4851.455078125,1.47265625 -30.751953125,6.82421875 0,84.4375 30.751953125,-5.64453125 z m 479.671875,2.494140625 -11.25390625,2.044921875 0,42.2265625 11.25390625,-1.869140625 z m 366.171875,0.642578125 -14.48828125,2.31640625 0,47.8984375 14.48828125,-2.08984375 z m 401.1328125,1.86328125 -81.28515625,11.494140625 0.130859375,51.10546875 81.28515625,-10.28125 z m -796.3203125,2.767578125 -11.015625,2.001953125 0,41.775390625 11.015625,-1.828125 z m 357.865234375,1.3359375 -14.140625,2.26171875 0,47.3203125 14.140625,-2.0390625 z m -386.267578125,3.826171875 -10.783203125,1.958984375 0,41.3359375 10.783203125,-1.791015625 z m 349.837890625,2 -13.8046875,2.20703125 0,46.755859375 13.8046875,-1.990234375 z m 4129.986328125,0.251953125 0,138.076171875 28.5234375,6.6875 0,-135.37890625 z m -4507.6328125,2.80078125 -10.55859375,1.91796875 0,40.904296875 10.55859375,-1.75390625 z m 753.908203125,0.962890625 -76.83203125,10.86328125 0.134765625,49.701171875 76.830078125,-9.716796875 z m -411.828125,1.671875 -13.48046875,2.154296875 0,46.205078125 13.48046875,-1.943359375 z m -369.310546875,2.3125 -10.341796875,1.87890625 0,40.484375 10.341796875,-1.71875 z m 334.57421875,3.240234375 -13.166015625,2.10546875 0,45.66796875 13.166015625,-1.900390625 z m -361.24609375,1.607421875 -10.130859375,1.83984375 0,40.0703125 10.130859375,-1.68359375 z m 4608.873046875,2.978515625 0,133.599609375 26.720703125,6.263671875 0,-131.072265625 z m -4281.55859375,0.83984375 -12.865234375,2.056640625 0,45.142578125 12.865234375,-1.85546875 z m 387.265625,0.53125 -72.732421875,10.28515625 0.1328125,48.37109375 72.732421875,-9.19921875 z m -740.7109375,0.3984375 -9.927734375,1.802734375 0,39.6640625 9.927734375,-1.6484375 z m -23.705078125,4.306640625 -9.7421875,1.771484375 0,39.296875 9.7421875,-1.619140625 z m 343.994140625,0.06640625 -12.57421875,2.009765625 0,44.62890625 12.57421875,-1.814453125 z m -32.408203125,5.181640625 -12.291015625,1.96484375 0,44.126953125 12.291015625,-1.7734375 z m 364.560546875,2.529296875 -68.953125,9.75 0.134765625,47.111328125 68.953125,-8.72265625 z m 4026.927734375,0.7421875 0,129.404296875 25.083984375,5.87890625 0,-127.03125 z m -4423.169921875,1.794921875 -12.01953125,1.921875 0,43.634765625 12.01953125,-1.734375 z m -30.984375,4.953125 -11.75390625,1.880859375 0,43.154296875 11.75390625,-1.6953125 z m -30.3046875,4.845703125 -11.5,1.83984375 0,42.685546875 11.5,-1.66015625 z m -29.650390625,4.7421875 -11.25390625,1.798828125 0,42.2265625 11.25390625,-1.625 z m -29.015625,4.638671875 -11.015625,1.76171875 0,41.775390625 11.015625,-1.587890625 z m 395.1875,3.990234375 -14.48828125,2.001953125 0,47.8984375 14.48828125,-1.775390625 z m -423.58984375,0.55078125 -10.783203125,1.724609375 0,41.3359375 10.783203125,-1.5546875 z m -27.80859375,4.447265625 -10.55859375,1.6875 0,40.90625 10.55859375,-1.5234375 z m 414.076171875,0.15625 -14.140625,1.953125 0,47.3203125 14.140625,-1.732421875 z m -441.306640625,4.197265625 -10.341796875,1.654296875 0,40.482421875 10.341796875,-1.4921875 z m 404.876953125,0.83203125 -13.8046875,1.90625 0,46.7578125 13.8046875,-1.69140625 z m -431.548828125,3.43359375 -10.130859375,1.619140625 0,40.0703125 10.130859375,-1.462890625 z m 395.982421875,1.478515625 -13.48046875,1.861328125 0,46.205078125 13.48046875,-1.650390625 z m -422.11328125,2.69921875 -9.927734375,1.587890625 0,39.6640625 9.927734375,-1.43359375 z m 387.376953125,2.09765625 -13.166015625,1.81640625 0,45.66796875 13.166015625,-1.611328125 z m -411.08203125,1.693359375 -9.7421875,1.556640625 0,39.296875 9.7421875,-1.40625 z m 377.150390625,2.9921875 -12.865234375,1.775390625 0,45.142578125 12.865234375,-1.576171875 z m -33.15625,4.578125 -12.57421875,1.736328125 0,44.626953125 12.57421875,-1.5390625 z m -32.408203125,4.474609375 -12.291015625,1.697265625 0,44.125 12.291015625,-1.50390625 z m -31.681640625,4.375 -12.01953125,1.658203125 0,43.63671875 12.01953125,-1.47265625 z m -30.984375,4.27734375 -11.75390625,1.623046875 0,43.15625 11.75390625,-1.439453125 z m -30.3046875,4.185546875 -11.5,1.587890625 0,42.685546875 11.5,-1.408203125 z m -29.650390625,4.09375 -11.25390625,1.552734375 0,42.2265625 11.25390625,-1.376953125 z m -29.015625,4.005859375 -11.015625,1.521484375 0,41.775390625 11.015625,-1.34765625 z m -28.40234375,3.921875 -10.783203125,1.48828125 0,41.337890625 10.783203125,-1.322265625 z m -27.80859375,3.83984375 -10.55859375,1.45703125 0,40.90625 10.55859375,-1.29296875 z m -27.23046875,3.759765625 -10.341796875,1.427734375 0,40.484375 10.341796875,-1.267578125 z m -26.671875,3.68359375 -10.130859375,1.3984375 0,40.0703125 10.130859375,-1.2421875 z m -26.130859375,3.607421875 -9.927734375,1.37109375 0,39.6640625 9.927734375,-1.21484375 z m -23.705078125,3.2734375 -9.7421875,1.345703125 0,39.296875 9.7421875,-1.193359375 z m -180.662109375,16.921875 -88.58203125,12.537109375 0,86.439453125 88.58203125,-9.140625 z m -110.044921875,15.57421875 -30.751953125,4.3515625 0,84.439453125 30.751953125,-3.173828125 z m 4012.0546875,16.103515625 0,93.494140625 170.451171875,14.974609375 0,-86.71484375 z m -2755.36328125,3.17578125 -145.2890625,12.34765625 0.12890625,96.748046875 -34.64453125,1.9453125 -0.158203125,-95.74609375 -130.990234375,11.1328125 0.26171875,91.9609375 -159.42578125,8.951171875 c 7.812669774758,-3.799982087231 13.792968750031,-21.462056399192 13.79296875,-42.34765625 -3e-11,-23.294756164659 -7.438193976719,-41.556726972426 -16.5625,-40.79296875 -9.069452445884,0.759166654502 -16.38085937504,20.049995696355 -16.380859375,43.091796875 3.1e-11,20.646223560595 5.871838044899,37.45080264831 13.6171875,40.359375 l -4.033203125,0.2265625 0,6.388671875 169.01171875,-9.123046875 130.87890625,-7.064453125 73.115234375,-3.9453125 106.677734375,-5.759765625 75.02734375,-4.048828125 153.125,5.857421875 0,-7.361328125 -153.125,-6.087890625 -75.02734375,4.212890625 z m 228.15234375,110.181640625 0,58.158203125 83.255859375,-2.875 0,-59.4609375 z m 0,58.158203125 -153.125,-4.033203125 -554.7109375,20.609375 146.74609375,2.9375 z m 2192.9921875,-168.19921875 -212.14453125,10.64453125 0,89.142578125 212.14453125,-7.326171875 z m -261.296875,13.111328125 -194.11328125,9.740234375 0,85.337890625 194.11328125,-6.705078125 z m -239.17578125,12.001953125 -178.28515625,8.9453125 0,81.84375 178.28515625,-6.15625 z m -219.748046875,11.02734375 -164.318359375,8.244140625 0,78.625 164.318359375,-5.673828125 z m -202.595703125,10.166015625 -151.9296875,7.623046875 0,75.650390625 151.9296875,-5.248046875 z m 1597.037109375,9.01171875 a 35.97899910033219,90.17236424243357 0 0 0 -35.978515625,90.171875 35.97899910033219,90.17236424243357 0 0 0 35.978515625,90.173828125 35.97899910033219,90.17236424243357 0 0 0 35.978515625,-90.173828125 35.97899910033219,90.17236424243357 0 0 0 -35.978515625,-90.171875 z m -3706.234375,0.341796875 c -0.256314468409,-0.01330168864 -0.513961699392,-0.0100009047 -0.7734375,0.01171875 -8.255597252938,0.69104217535 -14.91406250004,19.072909140592 -14.9140625,41.060546875 3.8e-11,21.987637734407 6.658465247062,39.44000091807 14.9140625,38.978515625 8.303225619472,-0.464147703803 15.068359375038,-18.852451361271 15.068359375,-41.0703125 -4e-11,-21.523552978153 -6.349173354336,-38.568116402288 -14.294921875,-38.98046875 z m 1921.822265625,0.046875 -140.892578125,7.0703125 0,72.892578125 140.892578125,-4.8671875 z m 1967.005859375,7.67578125 0,297.185546875 44.46875,-1.556640625 0,-289.955078125 z m -2140.814453125,1.046875 -131.013671875,6.57421875 0,70.326171875 131.013671875,-4.5234375 z m -1874.634765625,1.828125 c -0.234239127174,-0.01361375318 -0.469900337884,-0.01203675576 -0.70703125,0.0078125 -7.546570828048,0.631692482291 -13.63476562504,18.18717886163 -13.634765625,39.212890625 4.1e-11,21.025711763366 6.088194796952,37.728491563651 13.634765625,37.306640625 7.588189187726,-0.424177391886 13.769531250038,-17.984567568079 13.76953125,-39.220703125 -4.4e-11,-20.572506320776 -5.801087057649,-36.884614276325 -13.0625,-37.306640625 z m 1712.970703125,6.283203125 -122.140625,6.12890625 0,67.9375 122.140625,-4.21875 z m 2376.041015625,0.23046875 0,285.22265625 41.001953125,-1.435546875 0,-278.5546875 z m -4204.966796875,3.189453125 c -0.214897527253,-0.01382696266 -0.430884679341,-0.01235107905 -0.6484375,0.005859375 -6.925111823265,0.579672698696 -12.51171875004,17.379015005537 -12.51171875,37.5234375 3.7e-11,20.144422494465 5.586606926745,36.160549075501 12.51171875,35.7734375 6.961690261182,-0.389156298694 12.632812500037,-17.191801651234 12.6328125,-37.529296875 -3.5e-11,-19.701948498031 -5.322551655161,-35.344801657709 -11.984375,-35.7734375 z m 1678.177734375,4.14453125 -114.138671875,5.7265625 0,65.705078125 114.138671875,-3.94140625 z m 2594.66015625,1.328125 0,274.185546875 37.921875,-1.328125 0,-268.017578125 z m -4379.41796875,3.447265625 c -0.197856279024,-0.01396176747 -0.395400179371,-0.01286028778 -0.595703125,0.00390625 -6.377373738051,0.533823790815 -11.52343750004,16.636662676664 -11.5234375,35.970703125 3.1e-11,19.334040448342 5.146063761948,34.719774438599 11.5234375,34.36328125 6.40969426013,-0.358299895633 11.628906250038,-16.466692630873 11.62890625,-35.978515625 -3.5e-11,-18.902078525558 -4.899658475274,-33.926560208527 -11.033203125,-34.359375 z m 1643.853515625,2.294921875 -106.8984375,5.36328125 0,63.615234375 106.8984375,-3.69140625 z m 2798.376953125,2.2734375 0,263.970703125 35.1796875,-1.23046875 0,-258.25 z m -2930.3671875,4.349609375 -100.326171875,5.03515625 0,61.65234375 100.326171875,-3.46484375 z m 2988.66796875,3.091796875 0,254.490234375 32.72265625,-1.146484375 0,-249.16796875 z m -3112.568359375,3.125 -94.341796875,4.734375 0,59.80859375 94.341796875,-3.2578125 z m 3166.826171875,3.798828125 0,245.666015625 30.515625,-1.06640625 0,-240.705078125 z m 50.623046875,6.4609375 0,237.43359375 28.5234375,-0.998046875 0,-232.794921875 z m 47.337890625,6.04296875 0,326.7265625 69.44921875,-7.19921875 0,-310.6640625 z m -4839.37109375,36.998046875 -88.58203125,5.41796875 0,86.439453125 88.58203125,-2.01953125 z m -110.044921875,6.73046875 -30.751953125,1.880859375 0,84.4375 30.751953125,-0.701171875 z m 4012.0546875,3.505859375 0,362.95703125 170.451171875,-16.673828125 0,-336.630859375 z m -334.21875,1.47265625 -212.14453125,4.72265625 0,346.060546875 212.14453125,8.16015625 z m -261.296875,5.81640625 -194.11328125,4.3203125 0,331.291015625 194.11328125,7.46484375 z m -239.17578125,5.32421875 -178.28515625,3.96875 0,317.728515625 178.28515625,6.857421875 z m -219.748046875,4.892578125 -164.318359375,3.65625 0,305.234375 164.318359375,6.318359375 z m -202.595703125,4.509765625 -151.9296875,3.380859375 0,293.68359375 151.9296875,5.84375 z m -187.375,4.169921875 -140.892578125,3.13671875 0,282.9765625 140.892578125,5.41796875 z m -173.80859375,3.869140625 -131.013671875,2.91796875 0,273.01953125 131.013671875,5.0390625 z m -161.6640625,3.599609375 -122.140625,2.71875 0,263.744140625 122.140625,4.697265625 z m -150.748046875,3.35546875 -114.138671875,2.541015625 0,255.076171875 114.138671875,4.388671875 z m -140.904296875,3.13671875 -106.8984375,2.380859375 0,246.958984375 106.8984375,4.111328125 z m -131.990234375,2.939453125 -100.326171875,2.232421875 0,239.34375 100.326171875,3.859375 z m -123.900390625,2.7578125 -94.341796875,2.099609375 0,232.18359375 94.341796875,3.62890625 z m -116.529296875,2.59375 -88.876953125,1.978515625 0,225.439453125 88.876953125,3.41796875 z m -109.798828125,2.443359375 -83.873046875,1.8671875 0,219.076171875 83.873046875,3.2265625 z m -103.634765625,2.30859375 -79.28125,1.763671875 0,213.0625 79.28125,3.048828125 z m -97.974609375,2.1796875 -75.0546875,1.671875 0,207.369140625 75.0546875,2.88671875 z m -92.765625,2.06640625 -240.171875,5.345703125 0,191.7109375 240.171875,9.236328125 z m 4579.822265625,156.546875 -1561.2421875,204.306640625 c -175.012815651682,22.902471313995 -340.06291813865,27.370679622677 -504.669921875,18.8984375 l -4107.4140625,-211.40625 -11.43359375,10.2265625 4118.84765625,236.060546875 c 169.214175071476,9.695745526686 338.748327612946,3.117643177688 504.669921875,-21.083984375 l 1572.1484375,-229.31640625 z m -813.146484375,29.20703125 -28.5234375,2.1953125 0,39.013671875 28.5234375,-2.95703125 z m -48.630859375,3.7421875 -30.515625,2.34765625 0,40.365234375 30.515625,-3.162109375 z m -52.05078125,4.00390625 -32.72265625,2.517578125 0,41.81640625 32.72265625,-3.392578125 z m -55.84375,4.294921875 -35.1796875,2.70703125 0,43.375 35.1796875,-3.646484375 z m -60.0703125,4.62109375 -37.921875,2.91796875 0,45.052734375 37.921875,-3.9296875 z m -64.791015625,4.984375 -41.001953125,3.154296875 0,46.8671875 41.001953125,-4.25 z m -70.095703125,5.392578125 -44.46875,3.421875 0,48.83203125 44.46875,-4.609375 z"
           transform="scale(0.2645833333333333,0.2645833333333333)"
           id="path5469" />
      </g>
    </g>
  </g>
</svg>
